<svg xmlns="http://www.w3.org/2000/svg" xmlns:xlink="http://www.w3.org/1999/xlink" viewBox="0 0 2880.129 709.381"><defs><style>.a{fill:none;}.b{fill:#4d1254;}.c{fill:#44257d;}.d{clip-path:url(#a);}.e{fill:#44277b;}.f{fill:#682775;}.g{fill:#62358c;}.h{fill:#62358b;}.i{clip-path:url(#b);}.j{fill:#896fae;}</style><clipPath id="a"><path class="a" d="M0,0H114.406V79.546H0Z" transform="translate(0.227 0.936)"/></clipPath><clipPath id="b"><path class="a" d="M0,0H20.663V709.378H0Z" transform="translate(0.504 0.936)"/></clipPath></defs><g transform="translate(-0.504 -1.555)"><path class="b" d="M656.842,0,597.3,224.8,0,587.271,114.724,709.378H2081.7V187.331L1898.023,0Z" transform="translate(798.932 1.556)"/><path class="c" d="M0,0,183.678,187.331V0Z" transform="translate(2696.955 1.556)"/><g transform="translate(2766 0.62)"><path class="a" d="M0,0H114.406V79.546H0Z" transform="translate(0.227 0.936)"/><g class="d"><path class="e" d="M0,672.728,638.782,0,1743.087,521.59,2347.1,2832.1,591.466,2285.257Z" transform="translate(0.227 -2751.617)"/></g></g><path class="f" d="M0,0,113.066,224.8,172.607,0Z" transform="translate(1283.165 1.556)"/><path class="c" d="M303.435,531.273,900.735,168.8,202.251,0,0,208.3Z" transform="translate(495.497 57.555)"/><path class="g" d="M54.363,0,0,56,698.483,224.8,585.416,0Z" transform="translate(697.749 1.556)"/><path class="h" d="M0,445.076H534.358l201.17-122.107L432.093,0Z" transform="translate(63.404 265.858)"/><path class="f" d="M0,122.107H315.894L201.17,0Z" transform="translate(597.762 588.827)"/><path class="f" d="M0,0,232.738,56,287.1,0Z" transform="translate(465.01 1.556)"/><path class="g" d="M0,0,248.365,264.3,450.617,56,217.879,0Z" transform="translate(247.132 1.556)"/><path class="f" d="M0,0V709.378H62.9L494.993,264.3,246.627,0Z" transform="translate(0.504 1.556)"/><g transform="translate(0 0.62)"><path class="a" d="M0,0H20.663V709.378H0Z" transform="translate(0.504 0.936)"/><g class="i"><path class="j" d="M2391.167,1438.222l-724.5,746.182L0,0,1712,413.694Z" transform="translate(-2370 -684.403)"/></g></g></g></svg>