<?xml version="1.0" encoding="utf-8"?>
<!-- Generator: Adobe Illustrator 23.0.1, SVG Export Plug-In . SVG Version: 6.00 Build 0)  -->
<svg version="1.1" id="Layer_1" xmlns="http://www.w3.org/2000/svg" xmlns:xlink="http://www.w3.org/1999/xlink" x="0px" y="0px"
	 viewBox="0 0 238.11 70.87" style="enable-background:new 0 0 238.11 70.87;" xml:space="preserve">
<style type="text/css">
	.st0{fill:#4D1254;}
	.st1{fill:#B289BE;}
	.st2{fill:#C9BBDD;}
	.st3{fill:#682775;}
</style>
<g>
	<g>
		<g>
			<g>
				<path class="st0" d="M95.34,48.96v0.68h-2.73l-2.59-4.15h-0.05h-1.39v3.39l1.71,0.07v0.68h-3.1h-1.21v-0.68l1.21-0.24v-8.16
					l-1.3-0.07v-0.66h2.7h1.74c2.51,0,3.72,0.94,3.72,2.77c0,1.36-0.94,2.37-2.59,2.75l2.37,3.54L95.34,48.96z M88.57,44.66h1.27
					c0.37,0,0.72-0.04,1.03-0.11l0.05-0.02c1.08-0.26,1.69-0.97,1.69-1.93c0-1.25-0.79-1.87-2.42-1.87h-1.61V44.66z"/>
				<path class="st0" d="M95.58,46.37c0-2.24,1.34-3.74,3.38-3.74c1.96,0,3.25,1.34,3.25,3.45c0,2.26-1.3,3.76-3.36,3.76
					C96.88,49.84,95.58,48.48,95.58,46.37z M100.77,46.22c0-1.69-0.73-2.71-1.89-2.71c-1.16,0-1.89,1.03-1.89,2.71
					c0,1.69,0.75,2.71,1.91,2.71C100.06,48.94,100.77,47.93,100.77,46.22z"/>
				<path class="st0" d="M110.31,43.49l-0.88,0.22l-3.67,9.67l-1.41-0.77l1.98-2.97h-0.72l-2.24-5.91l-0.94-0.24v-0.68h3.74v0.68
					l-1.38,0.07l1.87,5.3l1.72-5.3l-1.32-0.07v-0.68h3.23V43.49z"/>
				<path class="st0" d="M117.45,48.74v0.62c-0.57,0.26-1.16,0.4-1.54,0.4c-0.7,0-1.05-0.39-1.05-1.01v-0.07l-0.66,0.86
					c-0.4,0.18-0.84,0.29-1.38,0.29c-1.39,0-2.29-0.73-2.29-1.94c0-0.48,0.15-1.05,0.53-1.63l3.8-0.26v-0.84
					c0-1.05-0.64-1.45-1.52-1.45c-0.73,0-1.45,0.18-2.31,0.55l-0.15-0.22l0.7-1.03c0.7-0.26,1.41-0.39,2.16-0.39
					c1.52,0,2.51,0.7,2.51,2.38v3.72H117.45z M114.86,48.3v-1.5h-2.75c-0.13,0.26-0.22,0.55-0.22,0.88c0,0.68,0.46,1.14,1.38,1.14
					C113.83,48.81,114.4,48.63,114.86,48.3z"/>
				<path class="st0" d="M121.79,48.99v0.64h-3.76v-0.64l1.16-0.28v-9.21h-1.34v-0.68l2.73-0.5v1.17v9.39L121.79,48.99z"/>
				<path class="st0" d="M133.15,47.12c0,1.61-1.36,2.71-3.49,2.71c-1.28,0-2.64-0.33-3.74-0.97l0.37-2.35h0.73v1.5
					c0.77,0.59,1.67,0.86,2.57,0.86c1.41,0,2.2-0.64,2.2-1.58c0-0.66-0.33-1.06-1.61-1.6l-1.43-0.66c-1.82-0.75-2.48-1.56-2.48-2.79
					c0-1.63,1.41-2.6,3.6-2.6c0.92,0,1.82,0.13,2.79,0.37v2.46h-0.7l-0.31-1.54c-0.62-0.26-1.28-0.39-1.89-0.39
					c-1.32,0-2.13,0.53-2.13,1.5c0,0.73,0.37,1.12,1.8,1.71l1.41,0.64C132.54,45.12,133.15,45.87,133.15,47.12z"/>
				<path class="st0" d="M139.99,48.55l-0.72,0.95c-0.4,0.22-0.97,0.33-1.63,0.33c-2.05,0-3.41-1.28-3.41-3.43
					c0-2.27,1.41-3.78,3.69-3.78c0.68,0,1.25,0.11,1.8,0.31v1.1v1.45H139l-0.33-1.91c-0.22-0.06-0.46-0.07-0.68-0.07
					c-1.5,0-2.35,1.05-2.35,2.71c0,1.61,0.99,2.51,2.42,2.51c0.7,0,1.25-0.15,1.78-0.42L139.99,48.55z"/>
				<path class="st0" d="M144.5,48.99v0.64h-3.76v-0.64l1.12-0.28v-4.88h-1.32v-0.66l2.71-0.5v1.16v5.06L144.5,48.99z M142.54,41.8
					l-1.08-1.08l1.08-1.08l1.08,1.08L142.54,41.8z"/>
				<path class="st0" d="M146.57,46.2v0.02c0,1.58,0.9,2.51,2.48,2.51c0.68,0,1.16-0.13,1.8-0.42l0.15,0.24l-0.68,0.94
					c-0.53,0.24-1.03,0.35-1.72,0.35c-2.13,0-3.43-1.32-3.43-3.43c0-2.27,1.28-3.78,3.32-3.78c1.72,0,2.77,1.12,2.77,2.84
					c0,0.26-0.02,0.5-0.07,0.73H146.57z M146.61,45.54L150,45.4c-0.04-1.16-0.59-1.89-1.52-1.89
					C147.46,43.51,146.79,44.28,146.61,45.54z"/>
				<path class="st0" d="M160.46,48.99v0.64h-3.76v-0.64l1.12-0.28v-3.5c0-1.08-0.57-1.5-1.39-1.5c-0.68,0-1.25,0.17-1.72,0.55v4.64
					l1.27,0.09v0.64h-3.8v-0.64l1.14-0.28v-4.88h-1.34v-0.66l2.73-0.5v1.16v0.05l0.55-0.88c0.44-0.24,0.99-0.39,1.65-0.39
					c1.39,0,2.31,0.73,2.31,2.31v3.96L160.46,48.99z"/>
				<path class="st0" d="M165.67,48.66l-0.7,0.9c-0.4,0.18-0.83,0.28-1.3,0.28c-1.27,0-1.94-0.66-1.94-2.04v-3.96h-1.27V43.2
					l1.27-0.24l0.68-1.82h0.72v1.82h2.4v0.88h-2.4v3.8c0,0.86,0.31,1.17,1.03,1.17c0.51,0,0.88-0.13,1.38-0.39L165.67,48.66z"/>
				<path class="st0" d="M170.07,48.99v0.64h-3.76v-0.64l1.12-0.28v-4.88h-1.32v-0.66l2.71-0.5v1.16v5.06L170.07,48.99z
					 M168.11,41.8l-1.08-1.08l1.08-1.08l1.08,1.08L168.11,41.8z"/>
				<path class="st0" d="M179.87,48.99v0.64h-3.74v-0.64l1.12-0.28v-4.88h-4.02v5.04l1.74,0.11v0.64h-4.26v-0.64l1.12-0.28v-4.88
					h-1.23V43.2l1.23-0.24v-1.52c0-2.02,1.05-3.1,2.81-3.1c0.59,0,1.1,0.13,1.56,0.33v1.1c-0.46-0.29-1.03-0.48-1.52-0.48
					c-0.95,0-1.45,0.57-1.45,2.15v1.52h3.91l1.5-0.28v1.16v5.06L179.87,48.99z M177.92,41.8l-1.08-1.08l1.08-1.08l1.08,1.08
					L177.92,41.8z"/>
				<path class="st0" d="M186.3,48.55l-0.72,0.95c-0.4,0.22-0.97,0.33-1.63,0.33c-2.05,0-3.41-1.28-3.41-3.43
					c0-2.27,1.41-3.78,3.69-3.78c0.68,0,1.25,0.11,1.8,0.31v1.1v1.45h-0.72l-0.33-1.91c-0.22-0.06-0.46-0.07-0.68-0.07
					c-1.5,0-2.35,1.05-2.35,2.71c0,1.61,0.99,2.51,2.42,2.51c0.7,0,1.25-0.15,1.78-0.42L186.3,48.55z"/>
				<path class="st0" d="M197.86,47.12c0,1.61-1.36,2.71-3.49,2.71c-1.28,0-2.64-0.33-3.74-0.97l0.37-2.35h0.73v1.5
					c0.77,0.59,1.67,0.86,2.57,0.86c1.41,0,2.2-0.64,2.2-1.58c0-0.66-0.33-1.06-1.61-1.6l-1.43-0.66c-1.82-0.75-2.48-1.56-2.48-2.79
					c0-1.63,1.41-2.6,3.6-2.6c0.92,0,1.82,0.13,2.79,0.37v2.46h-0.7l-0.31-1.54c-0.62-0.26-1.28-0.39-1.89-0.39
					c-1.32,0-2.13,0.53-2.13,1.5c0,0.73,0.37,1.12,1.8,1.71l1.41,0.64C197.26,45.12,197.86,45.87,197.86,47.12z"/>
				<path class="st0" d="M198.94,46.37c0-2.24,1.34-3.74,3.38-3.74c1.96,0,3.25,1.34,3.25,3.45c0,2.26-1.3,3.76-3.36,3.76
					C200.24,49.84,198.94,48.48,198.94,46.37z M204.13,46.22c0-1.69-0.73-2.71-1.89-2.71c-1.16,0-1.89,1.03-1.89,2.71
					c0,1.69,0.75,2.71,1.91,2.71S204.13,47.93,204.13,46.22z"/>
				<path class="st0" d="M212.26,48.55l-0.72,0.95c-0.4,0.22-0.97,0.33-1.63,0.33c-2.05,0-3.41-1.28-3.41-3.43
					c0-2.27,1.41-3.78,3.69-3.78c0.68,0,1.25,0.11,1.8,0.31v1.1v1.45h-0.72l-0.33-1.91c-0.22-0.06-0.46-0.07-0.68-0.07
					c-1.5,0-2.35,1.05-2.35,2.71c0,1.61,0.99,2.51,2.42,2.51c0.7,0,1.25-0.15,1.78-0.42L212.26,48.55z"/>
				<path class="st0" d="M216.77,48.99v0.64h-3.76v-0.64l1.12-0.28v-4.88h-1.32v-0.66l2.71-0.5v1.16v5.06L216.77,48.99z
					 M214.81,41.8l-1.08-1.08l1.08-1.08l1.08,1.08L214.81,41.8z"/>
				<path class="st0" d="M218.84,46.2v0.02c0,1.58,0.9,2.51,2.48,2.51c0.68,0,1.16-0.13,1.8-0.42l0.15,0.24l-0.68,0.94
					c-0.53,0.24-1.03,0.35-1.72,0.35c-2.13,0-3.43-1.32-3.43-3.43c0-2.27,1.28-3.78,3.32-3.78c1.72,0,2.77,1.12,2.77,2.84
					c0,0.26-0.02,0.5-0.07,0.73H218.84z M218.88,45.54l3.39-0.15c-0.04-1.16-0.59-1.89-1.52-1.89
					C219.72,43.51,219.06,44.28,218.88,45.54z"/>
				<path class="st0" d="M229.17,48.66l-0.7,0.9c-0.4,0.18-0.83,0.28-1.3,0.28c-1.27,0-1.94-0.66-1.94-2.04v-3.96h-1.27V43.2
					l1.27-0.24l0.68-1.82h0.72v1.82h2.4v0.88h-2.4v3.8c0,0.86,0.31,1.17,1.03,1.17c0.51,0,0.88-0.13,1.38-0.39L229.17,48.66z"/>
				<path class="st0" d="M237.43,43.49l-0.88,0.22l-3.67,9.67l-1.41-0.77l1.98-2.97h-0.72l-2.24-5.91l-0.94-0.24v-0.68h3.74v0.68
					l-1.38,0.07l1.87,5.3l1.72-5.3l-1.32-0.07v-0.68h3.23V43.49z"/>
			</g>
			<g>
				<path class="st0" d="M193.71,28.78v1.13c0,0.1-0.06,0.18-0.18,0.18h-2.32l-0.06-0.69l-1.01,0.63c-1.72-0.53-3.29-1.45-3.29-2.61
					c0-1.17,1.39-2.67,3.74-3.88c-0.02-0.2-0.06-0.42-0.08-0.63l1.47-0.59c0.08,2,0.12,4.5,0.16,6.32h1.39
					C193.67,28.62,193.71,28.7,193.71,28.78z M188.84,21.21l-1.19-1.07l1.17-1.19l1.07,1.05L188.84,21.21z M191.12,28.78
					c-0.14-1.66-0.24-2.77-0.4-4.18c-1.39,0.71-2.36,1.51-2.89,2.52C188.66,28.05,189.61,28.5,191.12,28.78z M191.23,21.21
					l-1.17-1.07l1.15-1.19l1.09,1.07L191.23,21.21z"/>
				<path class="st0" d="M193.53,30.09c-0.12,0-0.18-0.08-0.18-0.18v-1.13c0-0.08,0.04-0.16,0.18-0.16h2.48
					c0.14,0,0.18,0.08,0.18,0.16v1.13c0,0.1-0.06,0.18-0.18,0.18H193.53z"/>
				<path class="st0" d="M196.01,30.09c-0.12,0-0.18-0.08-0.18-0.18v-1.13c0-0.08,0.04-0.16,0.18-0.16h2.48
					c0.14,0,0.18,0.08,0.18,0.16v1.13c0,0.1-0.06,0.18-0.18,0.18H196.01z"/>
				<path class="st0" d="M204.37,28.78v1.13c0,0.1-0.06,0.18-0.18,0.18c-0.59,0-1.45-0.12-1.92-0.28l-0.67-0.99
					c-0.42,0.85-1.21,1.27-3.11,1.27c-0.12,0-0.18-0.08-0.18-0.18v-1.13c0-0.08,0.04-0.16,0.18-0.16c0.81,0,1.58-0.1,2.08-0.3
					c0.16-1.03,0.3-2.24,0.44-3.61l1.45,0.34c-0.26,1.41-0.48,2.52-0.65,3.23c0.57,0.22,1.27,0.34,2.4,0.34
					C204.33,28.62,204.37,28.7,204.37,28.78z M200.05,31.85l1.07,1.07l-1.05,1.21l-1.19-1.07L200.05,31.85z M202.47,31.85l1.09,1.07
					l-1.07,1.21l-1.17-1.07L202.47,31.85z"/>
				<path class="st0" d="M212.09,28.78v1.13c0,0.1-0.06,0.18-0.18,0.18h-0.57c-1.03,0-2.1-0.26-3.01-0.83
					c-1.07,0.63-2.32,0.83-3.35,0.83h-0.81c-0.12,0-0.18-0.08-0.18-0.18v-1.13c0-0.08,0.04-0.16,0.18-0.16
					c1.37,0,2.3-0.08,3.07-0.28c-0.79-0.83-1.53-2.02-2-3.21c-0.14,0.04-0.3,0.12-0.46,0.18l-0.28-0.26l0.61-1.35
					c1.33-0.46,2.2-0.65,3.19-0.65c1.64,0,2.97,0.67,2.97,1.74c0,0.87-0.67,2.42-1.84,3.61c0.73,0.2,1.37,0.22,2.48,0.22
					C212.05,28.62,212.09,28.7,212.09,28.78z M206.23,24.78c0.57,1.43,1.29,2.44,2.1,3.19c0.95-0.77,1.64-1.9,1.9-3.17
					c-0.71-0.24-1.33-0.34-2.04-0.34C207.6,24.46,206.96,24.56,206.23,24.78z"/>
				<path class="st0" d="M219.98,28.78v1.13c0,0.1-0.06,0.18-0.18,0.18c-0.75,0-1.29-0.24-1.66-0.79L218,30.17
					c-1.7-0.06-3.27-0.36-4.44-0.97c-0.42,0.44-0.87,0.71-1.25,0.89h-0.42c-0.12,0-0.18-0.08-0.18-0.18v-1.13
					c0-0.08,0.04-0.16,0.18-0.16c0.36,0,0.79-0.12,1.19-0.32v-0.04c0-1.92,1.21-4.24,2.97-4.24c0.89,0,1.53,0.63,1.92,1.7l0.61,1.7
					c0.32,0.89,0.53,1.19,1.21,1.19C219.94,28.62,219.98,28.7,219.98,28.78z M217.86,28.78l-0.12-0.32l-0.59-1.7
					c-0.32-0.91-0.67-1.33-1.27-1.33c-0.91,0-1.64,1.23-1.72,2.56C214.95,28.48,216.37,28.7,217.86,28.78z"/>
				<path class="st0" d="M229.92,28.78v1.13c0,0.1-0.06,0.18-0.18,0.18h-1.23c-0.85-0.18-1.62-0.57-2.42-1.35
					c-0.83,0.63-1.72,1.35-3.05,1.35h-0.87h-2.36c-0.12,0-0.18-0.08-0.18-0.18v-1.13c0-0.08,0.04-0.16,0.18-0.16h2.48h0.38
					c2.06,0,3.07-0.81,4.3-1.27c-1.88-1.03-2.89-2.38-3.9-2.77l-2.02,0.38l-0.22-0.42c0.71-0.52,1.27-1.01,2.08-1.62
					c2.02,0.59,2.99,2.87,6.14,3.86l-0.44,1.29l-0.81-0.3c-0.22,0.04-0.44,0.14-0.65,0.24c0.52,0.42,1.07,0.61,1.76,0.61h0.83
					C229.88,28.62,229.92,28.7,229.92,28.78z M224.14,31.83l1.09,1.05l-1.07,1.21l-1.17-1.07L224.14,31.83z"/>
				<path class="st0" d="M232.72,21.25c0.14,1.78,0.16,2.85,0.16,4.28c0,1.58-0.1,3.25-0.26,4.56h-0.95h-1.94
					c-0.12,0-0.18-0.08-0.18-0.18v-1.13c0-0.08,0.04-0.16,0.18-0.16h2.08c0.02-0.67,0-1.51-0.04-2.46
					c-0.12-3.23-0.36-5.19-0.87-7.65L232,18l1.11,2.75L232.72,21.25z"/>
				<path class="st0" d="M234.84,18.58l1.53-0.57c0.2,3.92,0.28,7.35,0.4,12.12l-1.17,0.12C235.35,26.23,235.21,22.78,234.84,18.58z
					"/>
				<g>
					<path class="st0" d="M221.73,19.3l3.63-1.27l-0.04,0.73l-3.63,1.25L221.73,19.3z"/>
				</g>
				<g>
					<path class="st0" d="M201.08,19.28c0,0.83-0.42,1.23-1.01,1.23c-0.42,0-0.73-0.18-0.93-0.57c-0.12,0.71-0.55,0.99-1.05,0.99
						c-0.59,0-1.05-0.48-1.05-1.21c0-0.24,0.04-0.57,0.12-0.87l0.57,0.14c-0.04,0.18-0.08,0.36-0.08,0.5c0,0.52,0.18,0.73,0.59,0.73
						c0.16,0,0.26-0.04,0.38-0.12c0.06-0.51,0.08-1.03,0.06-1.6l0.52-0.12c0.08,1.09,0.26,1.41,0.83,1.41
						c0.18,0,0.36-0.04,0.51-0.16c-0.02-0.46-0.16-0.87-0.36-1.41l0.63-0.3C200.98,18.33,201.08,18.92,201.08,19.28z"/>
				</g>
			</g>
			<g>
				<path class="st0" d="M93.14,28.78v1.13c0,0.1-0.06,0.18-0.18,0.18h-2.32l-0.06-0.69l-1.01,0.63c-1.72-0.53-3.29-1.45-3.29-2.61
					c0-1.17,1.39-2.67,3.74-3.88c-0.02-0.2-0.06-0.42-0.08-0.63l1.47-0.59c0.08,2,0.12,4.5,0.16,6.32h1.39
					C93.1,28.62,93.14,28.7,93.14,28.78z M88.26,21.21l-1.19-1.07l1.17-1.19l1.07,1.05L88.26,21.21z M90.54,28.78
					c-0.14-1.66-0.24-2.77-0.4-4.18c-1.39,0.71-2.36,1.51-2.89,2.52C88.08,28.05,89.03,28.5,90.54,28.78z M90.66,21.21l-1.17-1.07
					l1.15-1.19l1.09,1.07L90.66,21.21z"/>
				<path class="st0" d="M92.96,30.09c-0.12,0-0.18-0.08-0.18-0.18v-1.13c0-0.08,0.04-0.16,0.18-0.16h2.48
					c0.14,0,0.18,0.08,0.18,0.16v1.13c0,0.1-0.06,0.18-0.18,0.18H92.96z"/>
				<path class="st0" d="M95.43,30.09c-0.12,0-0.18-0.08-0.18-0.18v-1.13c0-0.08,0.04-0.16,0.18-0.16h2.48
					c0.14,0,0.18,0.08,0.18,0.16v1.13c0,0.1-0.06,0.18-0.18,0.18H95.43z"/>
				<path class="st0" d="M103.79,28.78v1.13c0,0.1-0.06,0.18-0.18,0.18c-0.59,0-1.45-0.12-1.92-0.28l-0.67-0.99
					c-0.42,0.85-1.21,1.27-3.11,1.27c-0.12,0-0.18-0.08-0.18-0.18v-1.13c0-0.08,0.04-0.16,0.18-0.16c0.81,0,1.58-0.1,2.08-0.3
					c0.16-1.03,0.3-2.24,0.44-3.61l1.45,0.34c-0.26,1.41-0.48,2.52-0.65,3.23c0.57,0.22,1.27,0.34,2.4,0.34
					C103.75,28.62,103.79,28.7,103.79,28.78z M99.47,31.85l1.07,1.07l-1.05,1.21l-1.19-1.07L99.47,31.85z M101.89,31.85l1.09,1.07
					l-1.07,1.21l-1.17-1.07L101.89,31.85z"/>
				<path class="st0" d="M112.37,28.78v1.13c0,0.1-0.06,0.18-0.18,0.18c-0.57,0-1.11-0.1-1.55-0.26l-0.52-0.81
					c-0.36,0.77-1.07,1.07-2.18,1.07h-4.38c-0.12,0-0.18-0.08-0.18-0.18v-1.13c0-0.08,0.04-0.16,0.18-0.16h5.65
					c0.06-0.24,0.1-0.57,0.1-0.87c0-1.6-0.91-2.65-2.97-3.45l-0.48,0.26l-1.6-1.17l0.12-0.99c1.55-1.72,3.49-3.31,5.92-4.91
					l0.04,1.84c-2.06,1.37-3.07,2.04-4.68,3.51c3.43,0.89,4.73,2.48,4.73,4.58c0,0.34-0.02,0.63-0.06,0.91
					c0.53,0.18,1.13,0.3,1.84,0.3C112.33,28.62,112.37,28.7,112.37,28.78z"/>
				<path class="st0" d="M116.45,28.78v1.13c0,0.1-0.06,0.18-0.18,0.18h-1.51c-0.14-0.2-0.28-0.4-0.38-0.57
					c-0.67,0.34-1.41,0.57-2.2,0.57c-0.12,0-0.18-0.08-0.18-0.18v-1.13c0-0.08,0.04-0.16,0.18-0.16c0.55,0,1.25-0.12,1.86-0.34
					c-0.3-2.89-0.53-5.31-0.85-9.69l1.53-0.59c0.06,3.43,0.14,7.13,0.42,10.62h1.13C116.41,28.62,116.45,28.7,116.45,28.78z"/>
				<path class="st0" d="M124.34,28.78v1.13c0,0.1-0.06,0.18-0.18,0.18c-0.75,0-1.29-0.24-1.66-0.79l-0.14,0.87
					c-1.7-0.06-3.27-0.36-4.44-0.97c-0.42,0.44-0.87,0.71-1.25,0.89h-0.42c-0.12,0-0.18-0.08-0.18-0.18v-1.13
					c0-0.08,0.04-0.16,0.18-0.16c0.36,0,0.79-0.12,1.19-0.32v-0.04c0-1.92,1.21-4.24,2.97-4.24c0.89,0,1.53,0.63,1.92,1.7l0.61,1.7
					c0.32,0.89,0.53,1.19,1.21,1.19C124.3,28.62,124.34,28.7,124.34,28.78z M122.22,28.78l-0.12-0.32l-0.59-1.7
					c-0.32-0.91-0.67-1.33-1.27-1.33c-0.91,0-1.64,1.23-1.72,2.56C119.3,28.48,120.73,28.7,122.22,28.78z"/>
				<path class="st0" d="M127.17,21.25c0.14,1.78,0.16,2.85,0.16,4.28c0,1.58-0.1,3.25-0.26,4.56h-0.95h-1.94
					c-0.12,0-0.18-0.08-0.18-0.18v-1.13c0-0.08,0.04-0.16,0.18-0.16h2.08c0.02-0.67,0-1.51-0.04-2.46
					c-0.12-3.23-0.36-5.19-0.87-7.65l1.11-0.52l1.11,2.75L127.17,21.25z"/>
				<path class="st0" d="M129.29,18.58l1.53-0.57c0.2,3.92,0.28,7.35,0.4,12.12l-1.17,0.12C129.8,26.23,129.66,22.78,129.29,18.58z"
					/>
				<g>
					<path class="st0" d="M118.17,19.3l3.63-1.27l-0.04,0.73l-3.63,1.25L118.17,19.3z"/>
				</g>
				<g>
					<path class="st0" d="M100.51,19.28c0,0.83-0.42,1.23-1.01,1.23c-0.42,0-0.73-0.18-0.93-0.57c-0.12,0.71-0.55,0.99-1.05,0.99
						c-0.59,0-1.05-0.48-1.05-1.21c0-0.24,0.04-0.57,0.12-0.87l0.57,0.14c-0.04,0.18-0.08,0.36-0.08,0.5c0,0.52,0.18,0.73,0.59,0.73
						c0.16,0,0.26-0.04,0.38-0.12c0.06-0.51,0.08-1.03,0.06-1.6l0.51-0.12c0.08,1.09,0.26,1.41,0.83,1.41
						c0.18,0,0.36-0.04,0.52-0.16c-0.02-0.46-0.16-0.87-0.36-1.41l0.63-0.3C100.41,18.33,100.51,18.92,100.51,19.28z"/>
				</g>
			</g>
			<g>
				<path class="st0" d="M144.04,28.78v1.13c0,0.1-0.06,0.18-0.18,0.18h-2.32l-0.06-0.69l-1.01,0.63c-1.72-0.53-3.29-1.45-3.29-2.61
					c0-1.17,1.39-2.67,3.74-3.88c-0.02-0.2-0.06-0.42-0.08-0.63l1.47-0.59c0.08,2,0.12,4.5,0.16,6.32h1.39
					C144,28.62,144.04,28.7,144.04,28.78z M139.16,21.21l-1.19-1.07l1.17-1.19l1.07,1.05L139.16,21.21z M141.44,28.78
					c-0.14-1.66-0.24-2.77-0.4-4.18c-1.39,0.71-2.36,1.51-2.89,2.52C138.99,28.05,139.94,28.5,141.44,28.78z M141.56,21.21
					l-1.17-1.07l1.15-1.19l1.09,1.07L141.56,21.21z"/>
				<path class="st0" d="M143.86,30.09c-0.12,0-0.18-0.08-0.18-0.18v-1.13c0-0.08,0.04-0.16,0.18-0.16h2.48
					c0.14,0,0.18,0.08,0.18,0.16v1.13c0,0.1-0.06,0.18-0.18,0.18H143.86z"/>
				<path class="st0" d="M146.33,30.09c-0.12,0-0.18-0.08-0.18-0.18v-1.13c0-0.08,0.04-0.16,0.18-0.16h2.48
					c0.14,0,0.18,0.08,0.18,0.16v1.13c0,0.1-0.06,0.18-0.18,0.18H146.33z"/>
				<path class="st0" d="M154.69,28.78v1.13c0,0.1-0.06,0.18-0.18,0.18c-0.59,0-1.45-0.12-1.92-0.28l-0.67-0.99
					c-0.42,0.85-1.21,1.27-3.11,1.27c-0.12,0-0.18-0.08-0.18-0.18v-1.13c0-0.08,0.04-0.16,0.18-0.16c0.81,0,1.58-0.1,2.08-0.3
					c0.16-1.03,0.3-2.24,0.44-3.61l1.45,0.34c-0.26,1.41-0.48,2.52-0.65,3.23c0.57,0.22,1.27,0.34,2.4,0.34
					C154.66,28.62,154.69,28.7,154.69,28.78z M150.38,31.85l1.07,1.07l-1.05,1.21l-1.19-1.07L150.38,31.85z M152.79,31.85l1.09,1.07
					l-1.07,1.21l-1.17-1.07L152.79,31.85z"/>
				<path class="st0" d="M162.56,28.78v1.13c0,0.1-0.06,0.18-0.18,0.18c-0.75,0-1.29-0.24-1.66-0.79l-0.14,0.87
					c-1.7-0.06-3.27-0.36-4.44-0.97c-0.42,0.44-0.87,0.71-1.25,0.89h-0.42c-0.12,0-0.18-0.08-0.18-0.18v-1.13
					c0-0.08,0.04-0.16,0.18-0.16c0.36,0,0.79-0.12,1.19-0.32v-0.04c0-1.92,1.21-4.24,2.97-4.24c0.89,0,1.53,0.63,1.92,1.7l0.61,1.7
					c0.32,0.89,0.53,1.19,1.21,1.19C162.52,28.62,162.56,28.7,162.56,28.78z M160.44,28.78l-0.12-0.32l-0.59-1.7
					c-0.32-0.91-0.67-1.33-1.27-1.33c-0.91,0-1.64,1.23-1.72,2.56C157.53,28.48,158.95,28.7,160.44,28.78z"/>
				<path class="st0" d="M166.66,28.78v1.13c0,0.1-0.06,0.18-0.18,0.18h-1.51c-0.14-0.2-0.28-0.4-0.38-0.57
					c-0.67,0.34-1.41,0.57-2.2,0.57c-0.12,0-0.18-0.08-0.18-0.18v-1.13c0-0.08,0.04-0.16,0.18-0.16c0.55,0,1.25-0.12,1.86-0.34
					c-0.3-2.89-0.53-5.31-0.85-9.69l1.53-0.59c0.06,3.43,0.14,7.13,0.42,10.62h1.13C166.62,28.62,166.66,28.7,166.66,28.78z"/>
				<path class="st0" d="M174.41,28.78v1.13c0,0.1-0.06,0.18-0.18,0.18h-0.57c-1.03,0-2.1-0.26-3.01-0.83
					c-1.07,0.63-2.32,0.83-3.35,0.83h-0.81c-0.12,0-0.18-0.08-0.18-0.18v-1.13c0-0.08,0.04-0.16,0.18-0.16
					c1.37,0,2.3-0.08,3.07-0.28c-0.79-0.83-1.53-2.02-2-3.21c-0.14,0.04-0.3,0.12-0.46,0.18l-0.28-0.26l0.61-1.35
					c1.33-0.46,2.2-0.65,3.19-0.65c1.64,0,2.97,0.67,2.97,1.74c0,0.87-0.67,2.42-1.84,3.61c0.73,0.2,1.37,0.22,2.48,0.22
					C174.37,28.62,174.41,28.7,174.41,28.78z M168.54,24.78c0.57,1.43,1.29,2.44,2.1,3.19c0.95-0.77,1.64-1.9,1.9-3.17
					c-0.71-0.24-1.33-0.34-2.04-0.34C169.91,24.46,169.27,24.56,168.54,24.78z"/>
				<path class="st0" d="M177.22,21.25c0.14,1.78,0.16,2.85,0.16,4.28c0,1.58-0.1,3.25-0.26,4.56h-0.95h-1.94
					c-0.12,0-0.18-0.08-0.18-0.18v-1.13c0-0.08,0.04-0.16,0.18-0.16h2.08c0.02-0.67,0-1.51-0.04-2.46
					c-0.12-3.23-0.36-5.19-0.87-7.65l1.11-0.52l1.11,2.75L177.22,21.25z"/>
				<path class="st0" d="M179.34,18.58l1.53-0.57c0.2,3.92,0.28,7.35,0.4,12.12l-1.17,0.12C179.85,26.23,179.71,22.78,179.34,18.58z
					"/>
				<g>
					<path class="st0" d="M151.41,19.28c0,0.83-0.42,1.23-1.01,1.23c-0.42,0-0.73-0.18-0.93-0.57c-0.12,0.71-0.55,0.99-1.05,0.99
						c-0.59,0-1.05-0.48-1.05-1.21c0-0.24,0.04-0.57,0.12-0.87l0.57,0.14c-0.04,0.18-0.08,0.36-0.08,0.5c0,0.52,0.18,0.73,0.59,0.73
						c0.16,0,0.26-0.04,0.38-0.12c0.06-0.51,0.08-1.03,0.06-1.6l0.51-0.12c0.08,1.09,0.26,1.41,0.83,1.41
						c0.18,0,0.36-0.04,0.52-0.16c-0.02-0.46-0.16-0.87-0.36-1.41l0.63-0.3C151.31,18.33,151.41,18.92,151.41,19.28z"/>
				</g>
				<g>
					<path class="st0" d="M168.25,33.15l3.63-1.25l-0.04,0.71l-3.63,1.27L168.25,33.15z"/>
				</g>
			</g>
		</g>
	</g>
	<g>
		<g>
			<path class="st1" d="M51.5,3.5C46.85,1.26,41.63,0,36.12,0l0,0v3.51l9.6,12.03h15.37l2.75-2.18l0,0
				C60.53,9.22,56.32,5.83,51.5,3.5z"/>
			<g>
				<polygon class="st2" points="45.72,15.54 45.72,15.54 45.72,15.54 48.61,9.52 36.12,3.51 				"/>
				<polygon class="st1" points="45.72,15.54 45.72,15.54 61.09,15.54 48.61,9.52 				"/>
			</g>
			<g>
				<polygon class="st3" points="48.61,9.52 51.5,3.5 36.12,3.51 				"/>
				<path class="st1" d="M51.5,3.5C46.85,1.26,41.63,0,36.12,0l0,0v3.51L51.5,3.5z"/>
			</g>
			<g>
				<polygon class="st0" points="51.5,3.5 51.5,3.5 48.61,9.52 61.09,15.54 				"/>
				<path class="st3" d="M63.84,13.35C60.53,9.22,56.32,5.83,51.5,3.5l9.58,12.03L63.84,13.35L63.84,13.35z"/>
			</g>
			<path class="st1" d="M70.67,27.56c-1.14-5.04-3.4-9.89-6.84-14.21l-2.75,2.18l-3.42,15.01l9.58,12.02l3.42,0.79
				C71.84,38.2,71.86,32.77,70.67,27.56z"/>
			<g>
				<polygon class="st2" points="57.66,30.54 57.66,30.54 57.66,30.54 64.17,29.06 61.09,15.54 				"/>
				<polygon class="st1" points="57.66,30.54 57.66,30.54 67.24,42.56 64.17,29.06 				"/>
			</g>
			<polygon class="st3" points="64.17,29.06 70.67,27.56 61.09,15.54 			"/>
			<g>
				<polygon class="st0" points="70.67,27.56 70.67,27.56 64.17,29.06 67.24,42.56 				"/>
				<path class="st3" d="M70.66,43.35c1.18-5.15,1.2-10.58,0.01-15.79l-3.43,15L70.66,43.35L70.66,43.35z"/>
			</g>
			<path class="st1" d="M36.12,57.53v13.34c5.14,0,10.41-1.11,15.35-3.49l-1.51-3.17L36.12,57.53z"/>
			<g>
				<polygon class="st2" points="36.12,57.53 36.12,57.53 36.12,57.53 36.12,64.2 49.96,64.2 				"/>
			</g>
			<polygon class="st3" points="36.12,64.2 36.12,70.87 49.96,64.2 			"/>
			<path class="st1" d="M70.67,27.56c-1.14-5.04-3.4-9.89-6.84-14.21l-2.75,2.18L70.67,27.56z"/>
			<path class="st1" d="M63.81,57.54c3.22-4.02,5.63-8.83,6.86-14.19c0,0-3.42-0.79-3.42-0.79l-13.87,6.67L49.96,64.2l1.51,3.17
				C56.26,65.08,60.46,61.72,63.81,57.54z"/>
			<g>
				<polygon class="st2" points="53.37,49.24 53.37,49.24 53.37,49.24 58.58,53.4 67.24,42.56 				"/>
				<polygon class="st1" points="53.37,49.24 53.37,49.24 49.96,64.2 58.58,53.4 				"/>
			</g>
			<polygon class="st3" points="58.58,53.4 63.81,57.54 67.24,42.56 			"/>
			<g>
				<polygon class="st0" points="63.81,57.54 63.81,57.54 58.58,53.4 49.96,64.2 				"/>
				<path class="st3" d="M51.47,67.38c4.78-2.3,8.98-5.65,12.33-9.83L49.96,64.2L51.47,67.38L51.47,67.38z"/>
			</g>
			<path class="st1" d="M63.81,57.54c3.22-4.02,5.63-8.83,6.86-14.19c0,0-3.42-0.79-3.42-0.79L63.81,57.54z"/>
			<path class="st1" d="M20.73,3.5C25.39,1.26,30.6,0,36.12,0l0,0v3.51l-9.6,12.03H11.15L8.4,13.35l0,0
				C11.7,9.22,15.92,5.83,20.73,3.5z"/>
			<g>
				<polygon class="st1" points="26.52,15.54 26.52,15.54 26.52,15.54 23.63,9.52 36.12,3.51 				"/>
				<polygon class="st2" points="26.52,15.54 26.52,15.54 11.15,15.54 23.63,9.52 				"/>
			</g>
			<g>
				<polygon class="st0" points="23.63,9.52 20.73,3.5 36.12,3.51 				"/>
				<path class="st3" d="M20.73,3.5C25.39,1.26,30.6,0,36.12,0l0,0v3.51L20.73,3.5z"/>
			</g>
			<g>
				<polygon class="st3" points="20.73,3.5 20.73,3.5 23.63,9.52 11.15,15.54 				"/>
				<path class="st1" d="M8.4,13.35c3.3-4.14,7.52-7.52,12.33-9.85l-9.58,12.03L8.4,13.35L8.4,13.35z"/>
			</g>
			<path class="st1" d="M1.56,27.56c1.14-5.04,3.41-9.89,6.84-14.21l2.74,2.18l3.43,15.01L5,42.56l-3.42,0.79
				C0.4,38.2,0.38,32.77,1.56,27.56z"/>
			<g>
				<polygon class="st1" points="14.58,30.54 14.58,30.54 14.58,30.54 8.07,29.06 11.15,15.54 				"/>
				<polygon class="st2" points="14.58,30.54 14.58,30.54 5,42.56 8.07,29.06 				"/>
			</g>
			<polygon class="st0" points="8.07,29.06 1.56,27.56 11.15,15.54 			"/>
			<g>
				<polygon class="st3" points="1.56,27.56 1.56,27.56 8.07,29.06 5,42.56 				"/>
				<path class="st1" d="M1.57,43.35C0.4,38.2,0.38,32.77,1.56,27.56l3.44,15L1.57,43.35L1.57,43.35z"/>
			</g>
			<path class="st3" d="M36.12,57.53v13.34c-5.15,0-10.41-1.11-15.36-3.49l1.52-3.17L36.12,57.53z"/>
			<g>
				<polygon class="st1" points="36.12,57.53 36.12,57.53 36.12,57.53 36.12,64.2 22.28,64.2 				"/>
			</g>
			<polygon class="st0" points="36.12,64.2 36.12,70.87 22.28,64.2 			"/>
			<path class="st3" d="M1.56,27.56c1.14-5.04,3.41-9.89,6.84-14.21l2.74,2.18L1.56,27.56z"/>
			<path class="st1" d="M8.44,57.54c-3.22-4.02-5.63-8.83-6.86-14.19c0,0,3.42-0.79,3.42-0.79l13.87,6.67l3.41,14.97l-1.52,3.17
				C15.99,65.08,11.78,61.72,8.44,57.54z"/>
			<g>
				<polygon class="st1" points="18.87,49.24 18.87,49.24 18.87,49.24 13.66,53.4 5,42.56 				"/>
				<polygon class="st2" points="18.87,49.24 18.87,49.24 22.28,64.2 13.66,53.4 				"/>
			</g>
			<polygon class="st0" points="13.66,53.4 8.44,57.54 5,42.56 			"/>
			<g>
				<polygon class="st3" points="8.44,57.54 8.44,57.54 13.66,53.4 22.28,64.2 				"/>
				<path class="st1" d="M20.76,67.38c-4.78-2.3-8.98-5.65-12.33-9.83l13.84,6.66L20.76,67.38L20.76,67.38z"/>
			</g>
			<path class="st3" d="M8.44,57.54c-3.22-4.02-5.63-8.83-6.86-14.19c0,0,3.42-0.79,3.42-0.79L8.44,57.54z"/>
		</g>
		<g>
			<g>
				<g>
					<path class="st0" d="M23.99,33.68c0.31-0.13,0.31-0.58,0.24-0.73c-0.02-0.05-0.05-0.09-0.09-0.11c-0.01,0-0.02-0.01-0.05,0
						c0,0-1.85,0.77-2.19,0.91l0.93,0.4L23.99,33.68z"/>
					<path class="st0" d="M30.04,32.1l0.17,0.55c1.69,0.17,3.89,0.27,5.91,0.27c2.02,0,4.21-0.1,5.91-0.27l0.17-0.55
						c-1.69,0.18-3.84,0.28-6.08,0.28C33.88,32.38,31.72,32.28,30.04,32.1z"/>
					<path class="st0" d="M42.41,30.34c0.09,0,0.16,0.03,0.23,0.07l0.17-0.54c-1.85,0.17-4.22,0.27-6.69,0.27
						c-2.47,0-4.85-0.1-6.69-0.27l0.17,0.54c0.06-0.05,0.14-0.07,0.23-0.07c0.22,0,0.39,0.18,0.39,0.39c0,0.22-0.18,0.39-0.39,0.39
						l0,0l0.09,0.28c2.11,0.25,4.6,0.3,6.2,0.3c1.6,0,4.09-0.05,6.21-0.3l0.09-0.28l0,0c-0.22,0-0.39-0.18-0.39-0.39
						C42.02,30.51,42.2,30.34,42.41,30.34z M31.86,31.3l-1.11-0.52l1.11-0.42l1.11,0.52L31.86,31.3z M33.97,31.37
						c-0.26,0-0.47-0.21-0.47-0.47c0-0.26,0.21-0.47,0.47-0.47c0.26,0,0.47,0.21,0.47,0.47C34.44,31.16,34.23,31.37,33.97,31.37z
						 M36.12,31.42l-1.19-0.5l1.19-0.5l1.19,0.5L36.12,31.42z M38.27,31.37c-0.26,0-0.46-0.21-0.46-0.47c0-0.26,0.21-0.47,0.46-0.47
						c0.26,0,0.47,0.21,0.47,0.47C38.74,31.16,38.53,31.37,38.27,31.37z M40.37,31.3l-1.11-0.42l1.11-0.52l1.11,0.42L40.37,31.3z"/>
					<polygon class="st0" points="36.12,18.02 36.58,18.02 36.77,17.81 36.12,16.17 35.47,17.81 35.66,18.02 					"/>
					<path class="st0" d="M26.13,24.71c-0.02,0.1-0.1,0.17-0.19,0.18c0.01,0.09,0.02,0.19,0.04,0.28c0.03-0.01,0.06-0.01,0.09,0
						c0.13,0.02,0.22,0.14,0.21,0.27c-0.01,0.09-0.08,0.17-0.17,0.2c0.03,0.09,0.07,0.18,0.11,0.27c0.05-0.02,0.1-0.03,0.15-0.03
						c0.14,0.02,0.25,0.14,0.24,0.28c-0.01,0.08-0.06,0.16-0.12,0.2c0.06,0.09,0.13,0.17,0.2,0.25c0.06-0.06,0.15-0.1,0.24-0.09
						c0.16,0.01,0.29,0.16,0.27,0.32c0,0.07-0.03,0.13-0.08,0.17c0.16,0.13,0.32,0.23,0.48,0.31c0.2-0.47,0.62-1.2,1.13-1.59
						c-0.48-0.3-0.81-0.73-0.81-1.34c0-0.82,0.52-1.59,1.67-1.84c0.01-0.64,0.2-1.19,0.25-1.32c-2.08-0.09-3.55,1.23-3.8,2.54
						c0.12,0.03,0.19,0.14,0.17,0.25c-0.02,0.12-0.13,0.19-0.25,0.17c-0.01,0.09-0.02,0.18-0.03,0.27c0.01,0,0.02,0,0.03,0
						C26.08,24.47,26.15,24.59,26.13,24.71z M29.44,21.8c-0.02,0.12-0.07,0.41-0.08,0.53c-1.24,0.37-1.71,1.22-1.71,2.05
						c0,0.58,0.21,1.01,0.65,1.37c-0.18,0.14-0.42,0.47-0.5,0.61c-0.63-0.41-0.93-1.12-0.93-1.89C26.88,23.04,27.99,22,29.44,21.8z"
						/>
					<path class="st0" d="M36.12,20.3c0.36-0.61,0.92-1.04,1.5-1.29l-0.32-0.1c-0.47,0.15-1,0.48-1.18,0.73
						c-0.18-0.25-0.71-0.57-1.18-0.73l-0.32,0.1C35.21,19.27,35.76,19.7,36.12,20.3z"/>
					<path class="st0" d="M39.07,19.57c-0.58,0.26-1.62,1.18-1.6,3.12c0.01,0.56,0.11,1.12,0.25,1.57c-0.23,0.09-0.6,0.3-0.76,0.39
						c-0.13-0.34-0.27-1.05-0.27-1.85c0-1.67,0.63-2.87,1.74-3.39l-0.3-0.1c-0.91,0.28-1.7,1.3-2,2.06c-0.31-0.75-1.09-1.77-2-2.06
						l-0.3,0.1c1.12,0.52,1.74,1.72,1.74,3.39c0,0.8-0.15,1.51-0.27,1.85c-0.16-0.08-0.54-0.3-0.76-0.39
						c0.14-0.45,0.24-1.01,0.25-1.57c0.02-1.94-1.02-2.86-1.6-3.12c-1.48-0.06-3.09,0.98-3.1,3.09c0,0.5,0.1,0.98,0.22,1.35
						c0.13,0.42,0.31,0.99,0.27,1.56c0.41,0.13,0.8,0.29,1.15,0.46c0.32-0.64,0.91-1.26,1.4-1.62c-0.61-0.52-0.87-1.26-0.87-1.8
						c0-1.21,0.57-1.91,1.63-2.15c0.36,0.47,0.64,1.05,0.63,2.21c-0.01,0.62-0.11,1.14-0.31,1.73c0.84,0.35,1.59,0.87,1.93,1.3
						c0.34-0.43,1.09-0.95,1.93-1.3c-0.2-0.58-0.31-1.1-0.31-1.73c-0.01-1.16,0.27-1.74,0.63-2.21c1.06,0.24,1.63,0.94,1.63,2.15
						c0,0.54-0.26,1.28-0.87,1.8c0.48,0.36,1.08,0.98,1.4,1.62c0.34-0.17,0.73-0.32,1.15-0.46c-0.05-0.57,0.13-1.14,0.26-1.56
						c0.12-0.38,0.22-0.85,0.22-1.35C42.17,20.54,40.55,19.5,39.07,19.57z M30.78,21.41c0.13,0,0.22,0.1,0.22,0.23
						c0,0.12-0.1,0.23-0.22,0.23c-0.13,0-0.22-0.1-0.22-0.23C30.56,21.51,30.66,21.41,30.78,21.41z M30.66,22.2
						c0.14,0,0.25,0.11,0.25,0.25c0,0.14-0.11,0.25-0.25,0.25c-0.14,0-0.25-0.11-0.25-0.25C30.41,22.31,30.52,22.2,30.66,22.2z
						 M30.42,23.32c0-0.15,0.12-0.28,0.28-0.28c0.15,0,0.28,0.13,0.28,0.28c0,0.16-0.13,0.28-0.28,0.28
						C30.54,23.6,30.42,23.48,30.42,23.32z M30.65,24.24c0-0.17,0.14-0.31,0.31-0.31c0.17,0,0.31,0.14,0.31,0.31
						c0,0.17-0.14,0.31-0.31,0.31C30.79,24.54,30.65,24.41,30.65,24.24z M31.31,25.47c-0.19,0-0.34-0.15-0.34-0.34
						c0-0.19,0.15-0.34,0.34-0.34c0.19,0,0.34,0.15,0.34,0.34C31.65,25.32,31.49,25.47,31.31,25.47z M31.98,22.6
						c0,0.65,0.27,1.28,0.72,1.79c-0.15,0.12-0.49,0.44-0.61,0.59c-0.51-0.53-0.89-1.41-0.89-2.32c0-1.28,0.57-2.47,2.09-2.76
						c0.09,0.05,0.33,0.23,0.42,0.35C32.48,20.58,31.98,21.42,31.98,22.6z M36.12,21.7c0.13,0,0.24,0.11,0.24,0.24
						c0,0.13-0.11,0.24-0.24,0.24c-0.13,0-0.24-0.11-0.24-0.24C35.88,21.81,35.99,21.7,36.12,21.7z M36.12,22.51
						c0.15,0,0.27,0.12,0.27,0.27c0,0.15-0.12,0.27-0.27,0.27c-0.15,0-0.27-0.12-0.27-0.27C35.85,22.63,35.97,22.51,36.12,22.51z
						 M36.12,23.33c0.17,0,0.31,0.14,0.31,0.31c0,0.17-0.14,0.31-0.31,0.31c-0.17,0-0.31-0.14-0.31-0.31
						C35.81,23.47,35.95,23.33,36.12,23.33z M36.12,24.93c-0.19,0-0.34-0.15-0.34-0.34c0-0.19,0.15-0.34,0.34-0.34
						c0.19,0,0.34,0.15,0.34,0.34C36.46,24.78,36.31,24.93,36.12,24.93z M41.46,21.41c0.13,0,0.22,0.1,0.22,0.23
						c0,0.12-0.1,0.23-0.22,0.23c-0.13,0-0.22-0.1-0.22-0.23C41.24,21.51,41.34,21.41,41.46,21.41z M40.15,24.99
						c-0.12-0.15-0.45-0.47-0.61-0.59c0.46-0.52,0.72-1.14,0.72-1.79c0-1.18-0.5-2.02-1.73-2.35c0.09-0.12,0.33-0.3,0.42-0.35
						c1.52,0.29,2.09,1.48,2.09,2.76C41.04,23.58,40.66,24.46,40.15,24.99z M41.29,24.54c-0.17,0-0.31-0.14-0.31-0.31
						c0-0.17,0.14-0.31,0.31-0.31c0.17,0,0.31,0.14,0.31,0.31C41.59,24.41,41.46,24.54,41.29,24.54z M41.55,23.6
						c-0.15,0-0.28-0.12-0.28-0.28c0-0.15,0.12-0.28,0.28-0.28c0.16,0,0.28,0.13,0.28,0.28C41.83,23.48,41.7,23.6,41.55,23.6z
						 M41.58,22.7c-0.14,0-0.25-0.11-0.25-0.25c0-0.14,0.11-0.25,0.25-0.25s0.25,0.11,0.25,0.25C41.83,22.59,41.72,22.7,41.58,22.7z
						"/>
					<path class="st0" d="M44.33,24.38c0,0.61-0.33,1.04-0.81,1.34c0.51,0.39,0.93,1.12,1.12,1.59c0.17-0.08,0.33-0.17,0.48-0.31
						c-0.04-0.05-0.07-0.11-0.08-0.17c-0.01-0.16,0.11-0.31,0.27-0.32c0.09-0.01,0.18,0.03,0.24,0.09c0.07-0.08,0.14-0.16,0.2-0.25
						c-0.06-0.04-0.11-0.12-0.12-0.2c-0.01-0.15,0.1-0.26,0.24-0.28c0.06-0.01,0.11,0,0.15,0.03c0.04-0.09,0.07-0.18,0.11-0.27
						c-0.08-0.03-0.15-0.1-0.16-0.2c-0.02-0.13,0.07-0.25,0.21-0.27c0.03,0,0.06,0,0.09,0c0.02-0.09,0.03-0.19,0.03-0.28
						c-0.1-0.01-0.17-0.08-0.19-0.18c-0.02-0.12,0.05-0.23,0.17-0.25c0.01,0,0.02,0,0.03,0c-0.01-0.09-0.01-0.18-0.03-0.27
						c-0.12,0.02-0.22-0.06-0.25-0.17c-0.02-0.12,0.05-0.23,0.17-0.25c-0.26-1.3-1.72-2.62-3.8-2.54c0.06,0.13,0.24,0.68,0.25,1.32
						C43.81,22.79,44.33,23.55,44.33,24.38z M45.37,24.46c0,0.77-0.3,1.49-0.93,1.89c-0.09-0.14-0.33-0.46-0.5-0.61
						c0.44-0.36,0.66-0.79,0.66-1.37c0-0.83-0.47-1.69-1.71-2.05c-0.01-0.12-0.06-0.41-0.08-0.53C44.25,22,45.37,23.04,45.37,24.46z
						"/>
					<path class="st0" d="M36.84,18.67c0-0.18-0.34-0.35-0.71-0.35c-0.38,0-0.71,0.17-0.71,0.35c0.25,0.08,0.5,0.21,0.71,0.37
						C36.33,18.88,36.58,18.76,36.84,18.67z"/>
					<path class="st0" d="M30.1,28.35c-0.23,0.2-0.8,0.31-1.17,0.23c0-0.06,0.02-0.11,0.06-0.17c0.07-0.11,0.07-0.11,0.22-0.21
						c0.16-0.1,0.19-0.32,0.01-0.34c0.11-0.11,0.14-0.25,0.08-0.32c-0.06-0.08-0.17-0.06-0.28,0.03c0.01-0.15-0.12-0.21-0.22-0.12
						c-0.05,0.05-0.09,0.11-0.13,0.2c-0.04,0.11-0.15,0.1-0.18-0.02c-0.03-0.11-0.06-0.17-0.12-0.23c-0.13-0.12-0.32-0.03-0.3,0.17
						c-0.09-0.14-0.22-0.18-0.29-0.13c-0.08,0.06-0.08,0.17,0.01,0.33c0.12,0.21,0.37,0.48,0.58,0.67c0.23,0.21,0.52,0.42,0.77,0.71
						c1.57,0.19,4.26,0.3,6.99,0.3c2.74,0,5.41-0.12,6.99-0.3c0.25-0.29,0.53-0.5,0.77-0.71c0.21-0.19,0.46-0.46,0.57-0.67
						c0.09-0.15,0.09-0.27,0.01-0.33c-0.07-0.05-0.2-0.02-0.3,0.13c0.02-0.2-0.17-0.29-0.3-0.17c-0.07,0.06-0.1,0.12-0.13,0.23
						c-0.04,0.12-0.14,0.11-0.19,0c-0.04-0.1-0.09-0.16-0.15-0.21c-0.12-0.1-0.28-0.04-0.27,0.13c-0.13-0.1-0.26-0.12-0.34-0.04
						c-0.08,0.08-0.04,0.23,0.09,0.34c-0.21,0.02-0.18,0.26,0.01,0.36c0.19,0.1,0.28,0.09,0.35,0.2c0.04,0.06,0.06,0.11,0.06,0.17
						c-0.38,0.04-0.9-0.06-1.16-0.23c0.1-0.04,0.18-0.14,0.2-0.27c0.02-0.17-0.1-0.33-0.26-0.35c-0.16-0.02-0.31,0.11-0.33,0.28
						c-0.01,0.14,0.05,0.26,0.17,0.32l-0.01,0.01c-0.43,0.33-1.38,0.36-1.74-0.08l-0.04-0.05c0.1-0.11,0.23-0.17,0.32-0.17
						c0.21,0.01,0.18,0.08,0.4,0.1c0.18,0.02,0.32-0.13,0.21-0.28c0.19,0,0.32-0.1,0.32-0.22c0.01-0.12-0.1-0.19-0.28-0.19
						c0.12-0.12,0.05-0.28-0.11-0.27c-0.07,0-0.16,0.02-0.27,0.07c-0.08,0.04-0.13-0.03-0.09-0.09c0.08-0.1,0.11-0.13,0.13-0.23
						c0.04-0.16-0.08-0.29-0.24-0.21c0.01-0.09,0.04-0.27-0.12-0.3c-0.17-0.04-0.26,0.16-0.29,0.27c-0.13-0.11-0.29-0.01-0.3,0.15
						c-0.01,0.09,0,0.14,0.03,0.25c0.02,0.07-0.05,0.13-0.12,0.08c-0.09-0.07-0.17-0.1-0.24-0.12c-0.16-0.03-0.29,0.11-0.21,0.25
						c-0.18-0.03-0.32,0.02-0.36,0.14c-0.04,0.11,0.06,0.23,0.24,0.26c-0.17,0.12-0.08,0.29,0.11,0.3c0.23,0.01,0.22-0.05,0.43-0.03
						c0.09,0.01,0.19,0.09,0.25,0.21l-0.06,0.05c-0.46,0.39-1.26,0.36-1.66-0.05l-0.01-0.01c0.12-0.04,0.21-0.16,0.21-0.3
						c0-0.17-0.14-0.32-0.31-0.32c-0.17,0-0.32,0.14-0.32,0.32c0,0.13,0.08,0.24,0.18,0.29l0,0c-0.46,0.39-1.27,0.38-1.74-0.02
						l-0.04-0.04c0.09-0.12,0.15-0.22,0.22-0.22c0.18-0.01,0.17,0.06,0.36,0.07c0.16,0.01,0.27-0.17,0.14-0.32
						c0.16-0.02,0.27-0.14,0.25-0.26c-0.01-0.12-0.13-0.19-0.28-0.18c0.09-0.14,0-0.3-0.14-0.28c-0.06,0.01-0.14,0.04-0.23,0.1
						c-0.06,0.05-0.12-0.02-0.09-0.09c0.05-0.11,0.09-0.16,0.09-0.26c0.01-0.18-0.11-0.29-0.25-0.19c0-0.15-0.03-0.31-0.19-0.31
						c-0.16,0-0.19,0.16-0.19,0.31c-0.13-0.1-0.26,0.01-0.25,0.19c0.01,0.1,0.05,0.15,0.1,0.26c0.03,0.08-0.02,0.14-0.09,0.09
						c-0.09-0.06-0.16-0.1-0.23-0.1c-0.14-0.02-0.23,0.14-0.14,0.28c-0.15-0.01-0.27,0.06-0.28,0.18c-0.01,0.12,0.09,0.24,0.25,0.26
						c-0.13,0.14-0.02,0.32,0.14,0.32c0.2-0.01,0.18-0.08,0.36-0.07c0.08,0,0.14,0.1,0.24,0.22l-0.04,0.04
						c-0.47,0.4-1.42,0.32-1.77,0.02l0,0c0.08-0.04,0.14-0.12,0.14-0.22c0-0.13-0.11-0.24-0.24-0.24c-0.13,0-0.24,0.11-0.24,0.24
						c0,0.1,0.07,0.19,0.16,0.23l0,0c-0.3,0.32-1.22,0.45-1.69,0.06l-0.07-0.07c0.06-0.11,0.13-0.19,0.21-0.2
						c0.18-0.02,0.18,0.04,0.38,0.03c0.16-0.01,0.24-0.18,0.09-0.29c0.16-0.04,0.31-0.15,0.27-0.26c-0.04-0.11-0.21-0.16-0.37-0.13
						c0.07-0.14-0.04-0.27-0.19-0.24c-0.06,0.01-0.13,0.05-0.21,0.11c-0.06,0.05-0.12-0.01-0.1-0.08c0.03-0.1,0.04-0.15,0.03-0.24
						c-0.02-0.16-0.15-0.25-0.27-0.15c-0.02-0.11-0.1-0.3-0.25-0.26c-0.14,0.04-0.12,0.2-0.11,0.29c-0.14-0.08-0.25,0.04-0.21,0.2
						c0.02,0.09,0.05,0.12,0.12,0.22c0.04,0.06,0,0.13-0.07,0.09c-0.1-0.05-0.17-0.07-0.23-0.07c-0.14,0-0.21,0.15-0.1,0.26
						C31.09,27.48,31,27.55,31,27.66c0.01,0.11,0.12,0.2,0.28,0.21c-0.1,0.14,0.03,0.29,0.18,0.27c0.19-0.03,0.16-0.09,0.35-0.1
						c0.08-0.01,0.18,0.07,0.28,0.18l-0.04,0.05c-0.4,0.44-1.36,0.38-1.73,0.08l-0.03,0c0.08-0.04,0.13-0.14,0.12-0.24
						c-0.02-0.13-0.13-0.23-0.25-0.21c-0.12,0.01-0.21,0.13-0.2,0.26C29.98,28.25,30.01,28.32,30.1,28.35z M28.7,28.43
						c-0.06,0.03-0.2-0.06-0.3-0.16c-0.1-0.09-0.16-0.19-0.09-0.25c0.06-0.06,0.24-0.08,0.37,0.06
						C28.78,28.18,28.79,28.38,28.7,28.43z M43.56,28.08c0.14-0.14,0.31-0.12,0.38-0.06c0.07,0.06,0.01,0.16-0.09,0.25
						c-0.1,0.1-0.24,0.19-0.3,0.16C43.46,28.38,43.46,28.18,43.56,28.08z M39.87,27.55c0.02-0.17,0.17-0.3,0.35-0.28
						c0.17,0.02,0.3,0.17,0.28,0.34c-0.02,0.17-0.17,0.3-0.34,0.28C39.98,27.87,39.85,27.72,39.87,27.55z M35.8,27.42
						c0-0.18,0.14-0.32,0.32-0.32c0.18,0,0.32,0.15,0.32,0.32c0,0.18-0.15,0.32-0.32,0.32C35.94,27.74,35.8,27.6,35.8,27.42z
						 M32.09,27.89c-0.17,0.02-0.33-0.11-0.34-0.28c-0.02-0.17,0.11-0.32,0.28-0.34c0.18-0.02,0.33,0.11,0.35,0.28
						C32.39,27.72,32.26,27.87,32.09,27.89z"/>
					<path class="st0" d="M50.26,43.76c-0.62-0.28-1.94-0.84-3.05-1.27l-1.33,0.59c-0.52-0.3-1.32-0.65-2.01-0.95
						c-0.79-0.34-3.24-1.35-3.24-1.35l-1.01,0.51c0,0,3.13,1.32,3.78,1.59c0.65,0.27,0,0,0,0c0.61,0.27,1,0.46,1.31,0.64l-2.69,1.17
						c1.51,0.67,3.88,1.59,4.57,1.85c1.59,0.59,3.13,0.44,4.96-0.15C51.6,44.44,50.96,44.08,50.26,43.76z M48.86,46.69
						c0.5-0.14,0.85-0.35,1.07-0.6c-0.53,0.35-1.08,0.51-1.51,0.53c-0.44,0.02-0.6,0-0.9-0.08c0.56-0.16,1.42-0.61,1.51-0.74
						c-0.76,0.34-1.36,0.6-1.75,0.59c-0.19,0-0.51,0.01-0.97-0.18c0.07,0.01,0.16-0.01,0.28-0.04c0.55-0.14,1.49-0.61,1.58-0.75
						c-0.77,0.35-1.35,0.53-1.72,0.6c-0.29,0.05-0.51,0.02-0.79-0.08c-0.27-0.1-0.03-0.01-0.29-0.12c0.07,0,0.16-0.01,0.27-0.04
						c0.56-0.14,1.47-0.6,1.57-0.74c-0.77,0.35-1.33,0.52-1.7,0.59c-0.26,0.04-0.72-0.02-1.12-0.19c0.07,0.01,0.17,0,0.29-0.03
						c0.55-0.14,1.49-0.61,1.59-0.75c-0.77,0.35-1.35,0.53-1.72,0.6c-0.27,0.05-0.72,0.01-1.1-0.2c0.07,0.01,0.17,0,0.29-0.03
						c0.56-0.14,1.49-0.61,1.59-0.75c-0.77,0.35-1.35,0.53-1.72,0.6c-0.26,0.05-0.75-0.01-1.01-0.17l0,0c0,0,0,0,0,0l2.38-1.03
						c0,0,0.43,0.2,0.84,0.55c-0.1-0.35-0.44-0.62-0.8-0.82c-0.37-0.2-0.66-0.34-1.27-0.61c-0.19-0.09,0.03-0.49,0.25-0.38
						c0.83,0.35,1.34,0.6,1.71,0.86c0.44,0.31,0.53,0.61,0.77,1.14c0.79,0.29,2.62,0.92,3.51,1.35c-0.55-0.74-2.24-1.19-3.13-1.59
						c-0.33-0.62-0.41-0.75-0.71-0.95l1.1-0.49c0.96,0.38,2.01,0.81,2.85,1.18c0.82,0.36,1.27,0.67,1.27,2.31
						C50.55,46.47,49.67,46.65,48.86,46.69z"/>
				</g>
			</g>
			<g>
				<path class="st0" d="M21.22,34.96c0.5,0.22,2.35,1.04,3,1.29c0.71,0.28,1.78,0.27,2.91-0.06c0.08-0.02,0.17-0.05,0.25-0.07
					l5.09,2.14l0.9-0.55l-5.42-2.28c0-0.04-0.01-0.09-0.02-0.14c-0.12-0.48-0.15-1.12-1.4-1.66l-1.87-0.82
					c0.15,0.09,0.22,0.54,0,0.82c0.43,0.18,1.04,0.48,1.55,0.69c0.7,0.28,0.77,0.56,0.87,0.98c-1.52,0.44-2.11,0.21-2.6,0.05
					c-0.31-0.1-2.89-1.21-3.01-1.26c-0.14-0.05-0.28-0.03-0.39,0.02c-0.06,0.03-0.11,0.08-0.15,0.14c0,0-0.01,0.01-0.01,0.01
					c-0.01,0.01-0.01,0.02-0.01,0.03C20.8,34.53,20.84,34.82,21.22,34.96z"/>
				<path class="st0" d="M51.48,33.27c-0.1-0.17-0.36-0.22-0.63-0.2c-0.22,0.02-0.34,0.02-1.07,0.15h0
					c-1.18,0.06-3.39,0.25-6.1,0.82c-1.94,0.4-7.89,1.9-13,5.79c-0.02,0.01-0.03,0.02-0.04,0.03c-0.92,0.7-1.81,1.49-2.65,2.35
					c-4.1,2.55-7.16,4.35-7.16,4.35l0.21,0.29c1.91-1.29,2.74-0.93,2.74-0.93c1.32-1.26,2.52-2.04,3.37-2.51
					c0.66-0.36,0.9-0.4,1.79-0.44c1.68-0.06,4.54,0.13,5.41,0.07c0.67-0.04,0.85-0.06,1.39-0.26c0.97-0.37,3.55-1.66,5.53-2.66
					c-0.42,0.02-0.9-0.04-1.47-0.39c-0.97-0.59-1.52-0.96-2.21-1.01c0.87-0.03,1.54,0.21,2.22,0.5c0.37,0.16,0.75,0.38,1.3,0.48
					c0.6,0.11,0.97-0.01,1.73-0.4c1.98-1.03,3.21-1.72,4.7-2.61l0.26-0.16l-0.3-0.04c-0.12-0.02-0.48-0.12-0.6-0.18
					c-0.28-0.14-0.46-0.25-0.63-0.36c-0.43-0.27-1.05-0.53-1.87-0.5c0.39-0.09,0.85-0.24,1.57-0.07c0.69,0.16,1.15,0.56,1.63,0.71
					c0.38,0.12,0.77,0.09,1.1-0.12c1.11-0.7,1.7-1.13,2.14-1.52C51.54,33.87,51.61,33.5,51.48,33.27z M31.83,39.29
					c-0.01,0.07-0.02,0.15-0.05,0.23c0.07-0.06,0.11-0.13,0.16-0.21c0.03-0.06,0.17-0.21,0.28-0.29c0.22-0.15,0.45-0.29,0.68-0.43
					c-0.02,0.12-0.03,0.26-0.08,0.38c0.11-0.09,0.17-0.21,0.22-0.33c0.07-0.14,0.16-0.25,0.38-0.38c0.19-0.12,0.39-0.24,0.59-0.35
					c-0.04,0.15-0.02,0.34-0.1,0.49c0.11-0.1,0.18-0.25,0.25-0.4c0.07-0.15,0.15-0.26,0.39-0.39c0.22-0.12,0.43-0.23,0.66-0.35
					c-0.06,0.15-0.03,0.35-0.12,0.52c0.11-0.1,0.19-0.25,0.26-0.39c0.08-0.16,0.22-0.32,0.46-0.43c0.15-0.07,0.45-0.2,0.6-0.28
					c-0.04,0.14,0,0.33-0.09,0.48c0.11-0.11,0.17-0.24,0.24-0.38c0.07-0.13,0.17-0.25,0.47-0.38c0.24-0.11,0.39-0.17,0.63-0.27
					c-0.03,0.14-0.01,0.33-0.08,0.46c0.1-0.1,0.16-0.22,0.22-0.35c0.06-0.12,0.21-0.25,0.48-0.36c0.22-0.09,0.44-0.18,0.67-0.27
					c-0.03,0.13,0,0.31-0.08,0.44c0.09-0.07,0.15-0.18,0.21-0.29c0.1-0.19,0.26-0.28,0.51-0.37c0.18-0.06,0.37-0.14,0.55-0.21
					c-0.04,0.13-0.04,0.3-0.12,0.43c0.11-0.08,0.2-0.21,0.28-0.33c0.07-0.11,0.19-0.2,0.48-0.29c0.2-0.06,0.41-0.13,0.61-0.18
					c-0.06,0.13-0.07,0.3-0.17,0.43c0.12-0.08,0.21-0.2,0.29-0.32c0.07-0.1,0.21-0.21,0.44-0.27c0.23-0.06,0.46-0.12,0.69-0.18
					c-0.03,0.08-0.06,0.16-0.12,0.24c0.08-0.04,0.14-0.1,0.19-0.16c0.08-0.09,0.13-0.13,0.36-0.18c1.44-0.34,2.88-0.59,4.29-0.73
					c-6.28,1.37-13.42,4.97-18.76,8.23C29.58,40.96,30.67,40.09,31.83,39.29z M51.14,33.8c-0.55,0.44-1.69,0.4-2.23,0.24
					c0.68,0.31,1.47,0.34,2.11,0.03c-0.3,0.34-0.73,0.61-0.94,0.69c-0.24,0.09-0.49,0.09-0.69,0.06c-0.21-0.03-0.49-0.14-0.68-0.21
					c-0.47-0.19-0.81-0.25-1.1-0.25c0.56,0.07,0.87,0.26,1.19,0.43c0.27,0.14,0.66,0.27,0.99,0.23c-0.24,0.25-0.72,0.46-1.02,0.41
					c-0.25-0.04-0.46-0.13-0.73-0.29c-0.65-0.38-1.05-0.44-1.55-0.42c0.53,0.04,0.85,0.17,1.35,0.5c0.38,0.25,0.76,0.43,1.1,0.4
					c-0.34,0.27-0.67,0.41-1.02,0.34c-0.64-0.12-1.15-0.56-1.86-0.7c-0.66-0.13-1.24-0.03-1.92,0.26c0.75,0.01,1.31,0.15,1.85,0.47
					c0.49,0.29,0.98,0.59,1.3,0.65c-0.4,0.23-0.81,0.17-0.96,0.15c-0.54-0.07-0.96-0.42-1.68-0.66c-0.63-0.22-1.06-0.18-1.5-0.13
					c0.75-0.01,1.32,0.14,1.85,0.45c0.44,0.26,1.06,0.61,1.65,0.56c-0.33,0.23-0.84,0.41-1.23,0.36c-0.67-0.08-1.23-0.5-1.93-0.72
					c-0.67-0.21-1.21-0.17-1.47-0.12c0.77,0,1.22,0.12,1.75,0.4c0.74,0.38,1.35,0.69,1.9,0.62c-0.49,0.28-0.8,0.43-1.27,0.38
					c-0.73-0.08-1.2-0.56-2.12-0.82c-0.6-0.17-1.15-0.14-1.37-0.11c0.79,0.04,1.29,0.13,2.07,0.56c0.87,0.48,1.24,0.63,1.7,0.55
					c-0.17,0.07,0.02-0.01-0.31,0.16c-0.44,0.24-0.77,0.34-1.11,0.25c-0.71-0.19-1.04-0.67-1.97-0.89c-0.7-0.17-1.12-0.16-1.63-0.09
					c0.99,0,1.66,0.13,2.45,0.63c0.53,0.33,0.95,0.57,1.3,0.6c-0.43,0.3-0.92,0.42-1.37,0.27c-0.46-0.16-0.89-0.58-1.7-0.8
					c-0.71-0.19-1.17-0.2-1.78-0.1c0.97-0.04,1.8,0.18,2.52,0.63c0.51,0.32,0.87,0.55,1.26,0.55c-0.56,0.3-0.97,0.25-1.24,0.2
					c-0.53-0.09-0.84-0.3-1.22-0.46c-0.22-0.09-0.89-0.32-1.32-0.37c-0.75-0.1-1.05-0.04-1.57,0.02c0.3,0.03,0.62,0.03,1.21,0.27
					c0.58,0.24,1.26,0.79,1.5,0.91c0.37,0.18,0.65,0.32,0.93,0.34c-0.38,0.25-0.95,0.36-1.42,0.21c-0.7-0.23-1.34-0.98-2.25-1.16
					c-0.5-0.1-0.83-0.08-1.06-0.06c0.83,0.04,1.41,0.18,2.16,0.76c0.65,0.5,1.25,0.75,1.65,0.71c-0.36,0.19-0.02,0.03-0.33,0.17
					c-0.39,0.17-0.64,0.18-1.06,0.09c-0.62-0.15-1.09-0.67-1.84-0.9c-0.57-0.18-1.17-0.22-1.76-0.11c0.71-0.04,1.5-0.01,2.25,0.53
					c0.67,0.48,1.22,0.74,1.67,0.71c-0.73,0.48-1.28,0.36-1.54,0.27c-0.42-0.16-0.91-0.56-1.58-0.76c-0.57-0.17-1.07-0.21-1.78-0.14
					c0.98,0.02,1.65,0.16,2.38,0.61c0.55,0.34,0.96,0.58,1.37,0.6c-0.47,0.3-1.12,0.42-1.62,0.19c-0.46-0.21-0.9-0.56-1.65-0.74
					c-0.6-0.14-1.09-0.16-1.65-0.07c1.15-0.01,1.87,0.22,2.47,0.59c0.52,0.32,0.96,0.58,1.38,0.53c-0.57,0.32-1.29,0.38-1.78,0.16
					c-0.56-0.25-0.91-0.49-1.59-0.64c-0.53-0.12-1.01-0.17-1.6-0.04c1.01-0.05,1.62,0.11,2.39,0.54c0.4,0.23,0.7,0.4,1.27,0.49
					c-0.38,0.07-1.05,0.09-1.54,0.03c-0.6-0.08-0.88-0.15-1.27-0.31c-0.74-0.3-1.29-0.27-1.82-0.18c0.62,0,1.02,0,1.52,0.24
					c0.17,0.08,0.44,0.22,0.62,0.27c-1.78-0.11-3.1-0.08-4.24-0.05c0.7-0.52,5.17-3.03,7.34-4.15c9.46-4.83,14.94-5.31,15.21-5.33
					c0.21-0.02,0.34,0.02,0.39,0.13C51.35,33.51,51.28,33.69,51.14,33.8z"/>
			</g>
		</g>
	</g>
</g>
</svg>
