<?xml version="1.0" encoding="utf-8"?>
<!-- Generator: Adobe Illustrator 23.0.1, SVG Export Plug-In . SVG Version: 6.00 Build 0)  -->
<svg version="1.1" xmlns="http://www.w3.org/2000/svg" xmlns:xlink="http://www.w3.org/1999/xlink" x="0px" y="0px"
	 viewBox="0 0 969 289" style="enable-background:new 0 0 969 289;" xml:space="preserve">
<style type="text/css">
	.st0{fill:#4D1254;}
	.st1{fill:#FFFFFF;}
	.st2{fill:#B289BE;}
	.st3{fill:#C9BBDD;}
	.st4{fill:#682775;}
</style>
<g id="Artwork">
	<g>
		<g>
			<g>
				<polygon class="st0" points="17.64,173.97 56.85,124.76 56.85,124.76 56.85,124.76 56.85,124.76 42.82,63.34 105.73,63.34 
					105.73,63.34 105.73,63.34 105.73,63.34 145.03,14.11 184.33,63.34 184.33,63.34 184.33,63.34 184.33,63.34 247.24,63.34 
					233.22,124.76 233.22,124.76 233.22,124.76 233.22,124.76 272.42,173.97 215.64,201.27 215.64,201.27 215.64,201.27 
					215.64,201.27 201.67,262.54 145.03,235.2 145.03,235.2 145.03,235.2 145.03,235.2 145.03,235.2 88.39,262.54 74.42,201.27 
					74.42,201.27 74.42,201.27 74.42,201.27 				"/>
			</g>
			<g>
				<g>
					<g>
						<g>
							<g>
								<g>
									<path class="st1" d="M387.45,200.13v2.78h-11.19l-10.59-16.97h-0.22h-5.71v13.89l6.98,0.3v2.78h-12.69h-4.96v-2.78
										l4.96-0.98v-33.41l-5.33-0.3v-2.7h11.04h7.13c10.29,0,15.24,3.83,15.24,11.34c0,5.56-3.83,9.69-10.59,11.26l9.69,14.49
										L387.45,200.13z M359.74,182.56h5.18c1.5,0,2.93-0.15,4.21-0.45l0.22-0.07c4.43-1.05,6.91-3.98,6.91-7.88
										c0-5.11-3.23-7.66-9.91-7.66h-6.61V182.56z"/>
									<path class="st1" d="M388.42,189.54c0-9.16,5.48-15.32,13.82-15.32c8.03,0,13.29,5.48,13.29,14.12
										c0,9.24-5.33,15.39-13.74,15.39C393.75,203.73,388.42,198.18,388.42,189.54z M409.67,188.94c0-6.91-3-11.11-7.73-11.11
										c-4.73,0-7.73,4.21-7.73,11.11c0,6.91,3.08,11.11,7.81,11.11C406.74,200.05,409.67,195.93,409.67,188.94z"/>
									<path class="st1" d="M448.71,177.76l-3.6,0.9l-15.02,39.57l-5.78-3.15l8.11-12.16h-2.93l-9.16-24.18l-3.83-0.98v-2.78
										h15.32v2.78l-5.63,0.3l7.66,21.7l7.06-21.7l-5.41-0.3v-2.78h13.22V177.76z"/>
									<path class="st1" d="M477.92,199.23v2.55c-2.33,1.05-4.73,1.65-6.31,1.65c-2.85,0-4.28-1.58-4.28-4.13V199l-2.7,3.53
										c-1.65,0.75-3.45,1.2-5.63,1.2c-5.71,0-9.38-3-9.38-7.96c0-1.95,0.6-4.28,2.18-6.68l15.54-1.05v-3.45
										c0-4.28-2.63-5.93-6.23-5.93c-3,0-5.93,0.75-9.46,2.25l-0.6-0.9l2.85-4.2c2.85-1.05,5.78-1.58,8.86-1.58
										c6.23,0,10.29,2.85,10.29,9.76v15.24H477.92z M467.33,197.43v-6.16h-11.26c-0.52,1.05-0.9,2.25-0.9,3.6
										c0,2.78,1.88,4.66,5.63,4.66C463.13,199.53,465.45,198.78,467.33,197.43z"/>
									<path class="st1" d="M495.71,200.28v2.63h-15.39v-2.63l4.73-1.13v-37.69h-5.48v-2.78l11.19-2.03v4.81v38.44L495.71,200.28z
										"/>
									<path class="st1" d="M542.18,192.62c0,6.61-5.56,11.11-14.26,11.11c-5.26,0-10.81-1.35-15.32-3.98l1.5-9.61h3v6.16
										c3.15,2.4,6.83,3.53,10.51,3.53c5.78,0,9.01-2.63,9.01-6.46c0-2.7-1.35-4.36-6.61-6.53l-5.86-2.7
										c-7.43-3.08-10.14-6.38-10.14-11.41c0-6.68,5.78-10.66,14.72-10.66c3.75,0,7.43,0.52,11.41,1.5v10.06h-2.85l-1.28-6.31
										c-2.55-1.05-5.26-1.58-7.73-1.58c-5.41,0-8.71,2.18-8.71,6.16c0,3,1.5,4.58,7.36,6.98l5.78,2.63
										C539.7,184.44,542.18,187.52,542.18,192.62z"/>
									<path class="st1" d="M570.19,198.48l-2.93,3.9c-1.65,0.9-3.98,1.35-6.68,1.35c-8.41,0-13.97-5.26-13.97-14.04
										c0-9.31,5.78-15.47,15.09-15.47c2.78,0,5.11,0.45,7.36,1.28v4.5v5.93h-2.93l-1.35-7.81c-0.9-0.23-1.88-0.3-2.78-0.3
										c-6.16,0-9.61,4.28-9.61,11.11c0,6.61,4.05,10.29,9.91,10.29c2.85,0,5.11-0.6,7.28-1.73L570.19,198.48z"/>
									<path class="st1" d="M588.65,200.28v2.63h-15.39v-2.63l4.58-1.13v-19.97h-5.41v-2.7l11.11-2.03v4.73v20.72L588.65,200.28z
										 M580.62,170.85l-4.43-4.43l4.43-4.43l4.43,4.43L580.62,170.85z"/>
									<path class="st1" d="M597.14,188.87v0.07c0,6.46,3.68,10.29,10.14,10.29c2.78,0,4.73-0.52,7.36-1.73l0.6,0.98l-2.78,3.83
										c-2.18,0.98-4.2,1.43-7.06,1.43c-8.71,0-14.04-5.41-14.04-14.04c0-9.31,5.26-15.47,13.59-15.47
										c7.06,0,11.34,4.58,11.34,11.64c0,1.05-0.07,2.03-0.3,3H597.14z M597.29,186.16l13.89-0.6c-0.15-4.73-2.4-7.73-6.23-7.73
										C600.74,177.83,598.04,180.98,597.29,186.16z"/>
									<path class="st1" d="M653.97,200.28v2.63h-15.39v-2.63l4.58-1.13v-14.34c0-4.43-2.33-6.16-5.71-6.16
										c-2.78,0-5.11,0.68-7.06,2.25v19l5.18,0.38v2.63h-15.54v-2.63l4.66-1.13v-19.97h-5.48v-2.7l11.19-2.03v4.73v0.22l2.25-3.6
										c1.8-0.98,4.05-1.58,6.76-1.58c5.71,0,9.46,3,9.46,9.46v16.22L653.97,200.28z"/>
									<path class="st1" d="M675.3,198.93l-2.85,3.68c-1.65,0.75-3.38,1.13-5.33,1.13c-5.18,0-7.96-2.7-7.96-8.33v-16.22h-5.18
										v-2.63l5.18-0.98l2.78-7.43h2.93v7.43h9.84v3.6h-9.84v15.54c0,3.53,1.28,4.81,4.21,4.81c2.1,0,3.6-0.53,5.63-1.58
										L675.3,198.93z"/>
									<path class="st1" d="M693.31,200.28v2.63h-15.39v-2.63l4.58-1.13v-19.97h-5.41v-2.7l11.11-2.03v4.73v20.72L693.31,200.28z
										 M685.28,170.85l-4.43-4.43l4.43-4.43l4.43,4.43L685.28,170.85z"/>
									<path class="st1" d="M733.41,200.28v2.63h-15.32v-2.63l4.58-1.13v-19.97h-16.44v20.65l7.13,0.45v2.63h-17.42v-2.63
										l4.58-1.13v-19.97h-5.03v-2.63l5.03-0.98v-6.23c0-8.26,4.28-12.69,11.49-12.69c2.4,0,4.5,0.52,6.38,1.35v4.5
										c-1.88-1.2-4.21-1.95-6.23-1.95c-3.9,0-5.93,2.33-5.93,8.79v6.23h15.99l6.16-1.13v4.73v20.72L733.41,200.28z
										 M725.45,170.85l-4.43-4.43l4.43-4.43l4.43,4.43L725.45,170.85z"/>
									<path class="st1" d="M759.76,198.48l-2.93,3.9c-1.65,0.9-3.98,1.35-6.68,1.35c-8.41,0-13.97-5.26-13.97-14.04
										c0-9.31,5.78-15.47,15.09-15.47c2.78,0,5.11,0.45,7.36,1.28v4.5v5.93h-2.93l-1.35-7.81c-0.9-0.23-1.88-0.3-2.78-0.3
										c-6.16,0-9.61,4.28-9.61,11.11c0,6.61,4.05,10.29,9.91,10.29c2.85,0,5.11-0.6,7.28-1.73L759.76,198.48z"/>
									<path class="st1" d="M807.06,192.62c0,6.61-5.56,11.11-14.26,11.11c-5.26,0-10.81-1.35-15.32-3.98l1.5-9.61h3v6.16
										c3.15,2.4,6.83,3.53,10.51,3.53c5.78,0,9.01-2.63,9.01-6.46c0-2.7-1.35-4.36-6.61-6.53l-5.86-2.7
										c-7.43-3.08-10.14-6.38-10.14-11.41c0-6.68,5.78-10.66,14.72-10.66c3.75,0,7.43,0.52,11.41,1.5v10.06h-2.85l-1.28-6.31
										c-2.55-1.05-5.26-1.58-7.73-1.58c-5.41,0-8.71,2.18-8.71,6.16c0,3,1.5,4.58,7.36,6.98l5.78,2.63
										C804.58,184.44,807.06,187.52,807.06,192.62z"/>
									<path class="st1" d="M811.48,189.54c0-9.16,5.48-15.32,13.82-15.32c8.03,0,13.29,5.48,13.29,14.12
										c0,9.24-5.33,15.39-13.74,15.39C816.82,203.73,811.48,198.18,811.48,189.54z M832.73,188.94c0-6.91-3-11.11-7.73-11.11
										c-4.73,0-7.73,4.21-7.73,11.11c0,6.91,3.08,11.11,7.81,11.11C829.81,200.05,832.73,195.93,832.73,188.94z"/>
									<path class="st1" d="M865.99,198.48l-2.93,3.9c-1.65,0.9-3.98,1.35-6.68,1.35c-8.41,0-13.97-5.26-13.97-14.04
										c0-9.31,5.78-15.47,15.09-15.47c2.78,0,5.11,0.45,7.36,1.28v4.5v5.93h-2.93l-1.35-7.81c-0.9-0.23-1.88-0.3-2.78-0.3
										c-6.16,0-9.61,4.28-9.61,11.11c0,6.61,4.05,10.29,9.91,10.29c2.85,0,5.11-0.6,7.28-1.73L865.99,198.48z"/>
									<path class="st1" d="M884.46,200.28v2.63h-15.39v-2.63l4.58-1.13v-19.97h-5.41v-2.7l11.11-2.03v4.73v20.72L884.46,200.28z
										 M876.43,170.85l-4.43-4.43l4.43-4.43l4.43,4.43L876.43,170.85z"/>
									<path class="st1" d="M892.94,188.87v0.07c0,6.46,3.68,10.29,10.14,10.29c2.78,0,4.73-0.52,7.36-1.73l0.6,0.98l-2.78,3.83
										c-2.18,0.98-4.2,1.43-7.06,1.43c-8.71,0-14.04-5.41-14.04-14.04c0-9.31,5.26-15.47,13.59-15.47
										c7.06,0,11.34,4.58,11.34,11.64c0,1.05-0.07,2.03-0.3,3H892.94z M893.09,186.16l13.89-0.6c-0.15-4.73-2.4-7.73-6.23-7.73
										C896.55,177.83,893.84,180.98,893.09,186.16z"/>
									<path class="st1" d="M935.21,198.93l-2.85,3.68c-1.65,0.75-3.38,1.13-5.33,1.13c-5.18,0-7.96-2.7-7.96-8.33v-16.22h-5.18
										v-2.63l5.18-0.98l2.78-7.43h2.93v7.43h9.84v3.6h-9.84v15.54c0,3.53,1.28,4.81,4.21,4.81c2.1,0,3.6-0.53,5.63-1.58
										L935.21,198.93z"/>
									<path class="st1" d="M969,177.76l-3.6,0.9l-15.02,39.57l-5.78-3.15l8.11-12.16h-2.93l-9.16-24.18l-3.83-0.98v-2.78h15.32
										v2.78l-5.63,0.3l7.66,21.7l7.06-21.7l-5.41-0.3v-2.78H969V177.76z"/>
								</g>
								<g>
									<polygon class="st1" points="784.31,81.72 779.85,77.34 775.15,82.2 779.93,86.58 									"/>
									<polygon class="st1" points="774.42,81.63 770.04,77.34 765.26,82.2 770.12,86.58 									"/>
									<polygon class="st1" points="821.21,135.07 825.99,139.45 830.37,134.5 825.91,130.12 									"/>
									<polygon class="st1" points="811.23,135.07 816.1,139.45 820.39,134.5 816.02,130.12 									"/>
									<polygon class="st1" points="909.91,134.91 914.69,139.29 919.07,134.34 914.61,130.04 									"/>
									<path class="st1" d="M946.8,73.44l-4.54,2.11c2.11,10.05,3.08,18.08,3.57,31.3c0.16,3.89,0.24,7.3,0.16,10.06h-8.43h-0.08
										h-3.32c-2.84,0-5.11-0.81-7.22-2.51c0.89-0.41,1.78-0.81,2.68-0.97l3.32,1.22l1.78-5.27
										c-12.89-4.05-16.86-13.38-25.14-15.81c-3.32,2.51-5.59,4.54-8.51,6.65l0.89,1.7l8.27-1.54c4.14,1.62,8.27,7.14,15.97,11.35
										c-5.03,1.87-9.16,5.19-17.6,5.19h-1.54h-10.14c-0.02,0-0.02,0.01-0.04,0.01c-0.02,0-0.02-0.01-0.04-0.01
										c-2.76,0-3.65-1.22-4.95-4.87l-2.51-6.97c-1.62-4.38-4.22-6.97-7.87-6.97c-7.22,0-12.16,9.49-12.16,17.35v0.16
										c-1.62,0.81-3.4,1.3-4.86,1.3c-4.49,0-7.07-0.09-10.06-0.89c4.78-4.87,7.54-11.19,7.54-14.76c0-4.38-5.43-7.14-12.16-7.14
										c-4.05,0-7.62,0.81-13.06,2.67l-2.51,5.52l1.14,1.05c0.65-0.24,1.3-0.57,1.87-0.73c1.95,4.87,4.95,9.73,8.19,13.14
										c-3.15,0.81-6.95,1.13-12.52,1.13c-4.6,0-7.44-0.49-9.78-1.38c0.73-2.92,1.62-7.46,2.67-13.22l-5.92-1.38
										c-0.57,5.59-1.14,10.54-1.78,14.76c-2.03,0.81-5.19,1.22-8.51,1.22h-10.14h-10.13h0h-5.67
										c-0.16-7.46-0.32-17.68-0.65-25.87l-6,2.43c0.08,0.89,0.24,1.78,0.32,2.6c-9.65,4.95-15.33,11.11-15.33,15.89
										c0,4.78,6.41,8.51,13.46,10.7l4.14-2.59l0.24,2.84h9.49h0h10.13h10.14c7.78,0,11.03-1.7,12.73-5.19l2.76,4.05
										c1.92,0.64,5.35,1.12,7.78,1.13c0,0,0,0,0.01,0h3.32c4.22,0,9.32-0.81,13.7-3.41c3.73,2.35,8.11,3.41,12.32,3.41h2.27h0.08
										h1.62c1.54-0.73,3.4-1.87,5.11-3.65c4.78,2.51,11.19,3.73,18.16,3.97l0.57-3.57c1.54,2.27,3.73,3.24,6.81,3.24
										c0.02,0,0.02-0.01,0.04-0.02c0.02,0,0.02,0.02,0.04,0.02h9.65h3.57c5.43,0,9.08-2.92,12.49-5.51
										c3.24,3.16,6.41,4.78,9.89,5.51h4.95h0.08h7.86h3.89c0.65-5.35,1.05-12.16,1.05-18.65c0-5.84-0.08-10.22-0.65-17.51
										l1.62-2.03L946.8,73.44z M765.99,110.74c2.19-4.14,6.16-7.38,11.84-10.3c0.65,5.76,1.05,10.3,1.62,17.11
										C773.29,116.42,769.39,114.56,765.99,110.74z M849.91,114.23c-3.32-3.08-6.24-7.22-8.59-13.06c3-0.89,5.59-1.3,8.03-1.3
										c2.92,0,5.43,0.4,8.35,1.38C856.64,106.45,853.8,111.07,849.91,114.23z M873.75,114.31c0.32-5.43,3.32-10.46,7.05-10.46
										c2.43,0,3.89,1.7,5.19,5.43l2.43,6.97l0.49,1.3C882.83,117.23,876.99,116.34,873.75,114.31z"/>
									<path class="st1" d="M964.64,73.44l-6.24,2.35c1.54,17.19,2.11,31.3,3.08,47.76l4.78-0.49
										C965.78,103.53,965.45,89.5,964.64,73.44z"/>
									<polygon class="st1" points="919.59,73.55 904.75,78.74 904.59,81.66 919.43,76.55 									"/>
									<path class="st1" d="M808,85.39c2.03,0,3.81-1.13,4.3-4.05c0.81,1.62,2.11,2.35,3.81,2.35c2.43,0,4.14-1.62,4.14-5.03
										c0-1.46-0.4-3.89-1.06-5.59l-2.59,1.22c0.81,2.19,1.38,3.89,1.46,5.76c-0.65,0.49-1.38,0.65-2.11,0.65
										c-2.35,0-3.08-1.3-3.41-5.76l-2.11,0.49c0.08,2.35,0,4.46-0.24,6.57c-0.48,0.33-0.89,0.49-1.54,0.49
										c-1.7,0-2.43-0.89-2.43-3c0-0.57,0.16-1.3,0.32-2.03l-2.35-0.57c-0.33,1.22-0.49,2.59-0.49,3.57
										C803.71,83.44,805.57,85.39,808,85.39z"/>
									<polygon class="st1" points="362.76,81.63 358.38,77.34 353.6,82.2 358.46,86.58 									"/>
									<polygon class="st1" points="372.65,81.72 368.19,77.34 363.49,82.2 368.27,86.58 									"/>
									<polygon class="st1" points="409.55,135.07 414.33,139.45 418.71,134.5 414.25,130.12 									"/>
									<polygon class="st1" points="399.57,135.07 404.44,139.45 408.73,134.5 404.36,130.12 									"/>
									<path class="st1" d="M514.79,73.44l-4.54,2.11c2.11,10.05,3.08,18.08,3.57,31.3c0.16,3.89,0.24,7.3,0.16,10.06h-8.51
										c-0.02,0-0.02,0.01-0.04,0.01c-0.02,0-0.02-0.01-0.04-0.01c-2.76,0-3.65-1.22-4.95-4.87l-2.51-6.97
										c-1.62-4.38-4.22-6.97-7.87-6.97c-7.22,0-12.16,9.49-12.16,17.35v0.16c-1.62,0.81-3.41,1.3-4.87,1.3h-4.54
										c-1.14-14.27-1.46-29.43-1.7-43.46l-6.24,2.43c1.3,17.92,2.27,27.81,3.49,39.65c-2.51,0.89-5.35,1.38-7.62,1.38
										c-2.92,0-5.35-0.49-7.54-1.22c0.16-1.14,0.24-2.35,0.24-3.73c0-8.6-5.35-15.08-19.38-18.73c6.57-6,10.7-8.76,19.14-14.35
										l-0.16-7.54c-9.97,6.57-17.92,13.06-24.25,20.11l-0.49,4.05l6.57,4.78l1.95-1.05c8.43,3.24,12.16,7.54,12.16,14.11
										c0,1.22-0.16,2.59-0.41,3.57H421.3c-4.62,0-7.46-0.49-9.81-1.38c0.73-2.92,1.62-7.46,2.67-13.22l-5.92-1.38
										c-0.57,5.59-1.14,10.54-1.78,14.76c-2.03,0.81-5.19,1.22-8.51,1.22h-10.14h-10.13h0H372c-0.16-7.46-0.32-17.68-0.65-25.87
										l-6,2.43c0.08,0.89,0.24,1.78,0.32,2.6c-9.65,4.95-15.33,11.11-15.33,15.89c0,4.78,6.41,8.51,13.46,10.7l4.14-2.59
										l0.24,2.84h9.49h0h10.13h10.14c7.78,0,11.03-1.7,12.73-5.19l2.76,4.05c1.9,0.63,5.27,1.11,7.69,1.13c0,0,0.01,0,0.01,0
										h17.92c4.54,0,7.46-1.22,8.92-4.38l2.11,3.32c1.78,0.65,3.97,1.05,6.32,1.05c0,0,0,0,0,0c0,0,0,0,0,0c0,0,0,0,0,0
										c0,0,0,0,0,0c3.24,0,6.24-0.97,9-2.35c0.4,0.73,0.97,1.54,1.54,2.35h6.08h0.08h1.62c1.54-0.73,3.4-1.87,5.11-3.65
										c4.78,2.51,11.19,3.73,18.16,3.97l0.57-3.57c1.54,2.27,3.73,3.24,6.81,3.24c0.02,0,0.02-0.01,0.04-0.02
										c0.02,0,0.02,0.02,0.04,0.02h7.95h3.89c0.65-5.35,1.05-12.16,1.05-18.65c0-5.84-0.08-10.22-0.65-17.51l1.62-2.03
										L514.79,73.44z M354.33,110.74c2.19-4.14,6.16-7.38,11.84-10.3c0.65,5.76,1.05,10.3,1.62,17.11
										C361.63,116.42,357.73,114.56,354.33,110.74z M482.28,114.31c0.32-5.43,3.32-10.46,7.05-10.46c2.43,0,3.89,1.7,5.19,5.43
										l2.43,6.97l0.49,1.3C491.36,117.23,485.52,116.34,482.28,114.31z"/>
									<path class="st1" d="M526.39,75.8c1.54,17.19,2.11,31.3,3.08,47.76l4.78-0.49c-0.49-19.54-0.81-33.57-1.62-49.63
										L526.39,75.8z"/>
									<polygon class="st1" points="495.71,73.55 480.87,78.74 480.71,81.66 495.55,76.55 									"/>
									<path class="st1" d="M396.34,85.39c2.03,0,3.81-1.13,4.3-4.05c0.81,1.62,2.11,2.35,3.81,2.35c2.43,0,4.14-1.62,4.14-5.03
										c0-1.46-0.41-3.89-1.05-5.59l-2.6,1.22c0.81,2.19,1.38,3.89,1.46,5.76c-0.65,0.49-1.38,0.65-2.11,0.65
										c-2.35,0-3.08-1.3-3.41-5.76l-2.11,0.49c0.08,2.35,0,4.46-0.24,6.57c-0.49,0.33-0.89,0.49-1.54,0.49
										c-1.7,0-2.43-0.89-2.43-3c0-0.57,0.16-1.3,0.32-2.03l-2.35-0.57c-0.32,1.22-0.49,2.59-0.49,3.57
										C392.05,83.44,393.91,85.39,396.34,85.39z"/>
									<polygon class="st1" points="571.1,81.63 566.73,77.34 561.94,82.2 566.81,86.58 									"/>
									<polygon class="st1" points="581,81.72 576.54,77.34 571.83,82.2 576.62,86.58 									"/>
									<polygon class="st1" points="607.92,135.07 612.78,139.45 617.08,134.5 612.7,130.12 									"/>
									<polygon class="st1" points="617.89,135.07 622.67,139.45 627.05,134.5 622.59,130.12 									"/>
									<path class="st1" d="M719.65,73.44l-4.54,2.11c2.11,10.05,3.08,18.08,3.57,31.3c0.16,3.89,0.24,7.3,0.16,10.06h-8.51
										c-4.54,0-7.14-0.08-10.14-0.89c4.78-4.87,7.54-11.19,7.54-14.76c0-4.38-5.43-7.14-12.16-7.14c-4.05,0-7.62,0.81-13.06,2.67
										l-2.51,5.52l1.14,1.05c0.65-0.24,1.3-0.57,1.87-0.73c1.95,4.87,4.95,9.73,8.19,13.14c-3.16,0.81-6.97,1.14-12.57,1.14H674
										c-1.13-14.27-1.46-29.43-1.7-43.46l-6.24,2.43c1.3,17.92,2.27,27.81,3.49,39.65c-2.51,0.89-5.35,1.38-7.62,1.38
										c-0.02,0-0.02,0.01-0.04,0.01c-0.02,0-0.02-0.01-0.04-0.01c-2.76,0-3.65-1.22-4.95-4.87l-2.51-6.97
										c-1.62-4.38-4.22-6.97-7.87-6.97c-7.22,0-12.16,9.49-12.16,17.35v0.16c-1.61,0.81-3.39,1.29-4.84,1.3
										c-4.54-0.01-7.35-0.49-9.67-1.38c0.73-2.92,1.62-7.46,2.67-13.22l-5.92-1.38c-0.57,5.59-1.14,10.54-1.78,14.76
										c-2.03,0.81-5.19,1.22-8.51,1.22h-10.14h-10.13h0h-5.67c-0.16-7.46-0.32-17.68-0.65-25.87l-6,2.43
										c0.08,0.89,0.24,1.78,0.32,2.6c-9.65,4.95-15.33,11.11-15.33,15.89c0,4.78,6.41,8.51,13.46,10.7l4.14-2.59l0.24,2.84h9.49
										h0h10.13h10.14c7.79,0,11.03-1.7,12.73-5.19l2.76,4.05c1.9,0.63,5.27,1.11,7.69,1.13c0,0,0.01,0,0.01,0h1.7
										c1.54-0.73,3.4-1.87,5.11-3.65c4.78,2.51,11.19,3.73,18.16,3.97l0.57-3.57c1.54,2.27,3.73,3.24,6.81,3.24
										c0.02,0,0.02-0.01,0.04-0.02c0.02,0,0.02,0.02,0.04,0.02c3.24,0,6.24-0.97,9-2.35c0.4,0.73,0.97,1.54,1.54,2.35h6.16h0
										h3.32c4.22,0,9.32-0.81,13.7-3.41c3.73,2.35,8.11,3.41,12.32,3.41h2.35h7.95h3.89c0.65-5.35,1.05-12.16,1.05-18.65
										c0-5.84-0.08-10.22-0.65-17.51l1.62-2.03L719.65,73.44z M562.67,110.74c2.19-4.14,6.16-7.38,11.84-10.3
										c0.65,5.76,1.05,10.3,1.62,17.11C569.97,116.42,566.08,114.56,562.67,110.74z M638.73,114.31
										c0.32-5.43,3.32-10.46,7.05-10.46c2.43,0,3.89,1.7,5.19,5.43l2.43,6.97l0.49,1.3
										C647.81,117.23,641.97,116.34,638.73,114.31z M695.65,114.23c-3.32-3.08-6.24-7.22-8.59-13.06c3-0.89,5.59-1.3,8.03-1.3
										c2.92,0,5.43,0.4,8.35,1.38C702.38,106.45,699.54,111.07,695.65,114.23z"/>
									<path class="st1" d="M731.24,75.8c1.54,17.19,2.11,31.3,3.08,47.76l4.78-0.49c-0.49-19.54-0.81-33.57-1.62-49.63
										L731.24,75.8z"/>
									<path class="st1" d="M604.69,85.39c2.03,0,3.81-1.13,4.3-4.05c0.81,1.62,2.11,2.35,3.81,2.35c2.43,0,4.14-1.62,4.14-5.03
										c0-1.46-0.41-3.89-1.05-5.59l-2.6,1.22c0.81,2.19,1.38,3.89,1.46,5.76c-0.65,0.49-1.38,0.65-2.11,0.65
										c-2.35,0-3.08-1.3-3.41-5.76l-2.11,0.49c0.08,2.35,0,4.46-0.24,6.57c-0.49,0.33-0.89,0.49-1.54,0.49
										c-1.7,0-2.43-0.89-2.43-3c0-0.57,0.16-1.3,0.32-2.03l-2.35-0.57c-0.32,1.22-0.49,2.59-0.49,3.57
										C600.39,83.44,602.26,85.39,604.69,85.39z"/>
									<polygon class="st1" points="685.69,138.44 700.52,133.25 700.69,130.33 685.85,135.44 									"/>
								</g>
							</g>
						</g>
					</g>
				</g>
				<g>
					<g>
						<path class="st2" d="M208.01,14.1C188.96,4.9,167.6-0.25,145.03-0.25c0,0,0,0,0,0l0,14.36l39.3,49.23h62.91l11.23-8.94l0,0
							C244.96,37.47,227.71,23.61,208.01,14.1z"/>
						<g>
							<polygon class="st3" points="184.33,63.34 184.33,63.34 184.33,63.34 196.16,38.73 145.03,14.11 							"/>
							<polygon class="st2" points="184.33,63.34 184.33,63.34 247.24,63.34 196.16,38.73 							"/>
						</g>
						<g>
							<polygon class="st4" points="196.16,38.73 208.01,14.1 145.03,14.11 							"/>
							<path class="st2" d="M208.01,14.1C188.96,4.9,167.6-0.25,145.03-0.25c0,0,0,0,0,0l0,14.36L208.01,14.1z"/>
						</g>
						<g>
							<polygon class="st0" points="208.01,14.1 208.01,14.1 196.16,38.73 247.24,63.34 							"/>
							<path class="st4" d="M258.47,54.41c-13.51-16.93-30.76-30.79-50.46-40.31l39.23,49.24L258.47,54.41L258.47,54.41z"/>
						</g>
						<path class="st2" d="M286.47,112.56c-4.67-20.63-13.94-40.5-28-58.15c0,0-11.23,8.94-11.23,8.94l-14.02,61.42l39.2,49.21
							l14,3.22C291.23,156.12,291.3,133.88,286.47,112.56z"/>
						<g>
							<polygon class="st3" points="233.22,124.76 233.22,124.76 233.22,124.76 259.84,118.69 247.24,63.34 							"/>
							<polygon class="st2" points="233.22,124.76 233.22,124.76 272.42,173.97 259.84,118.69 							"/>
						</g>
						<polygon class="st4" points="259.84,118.69 286.47,112.56 247.24,63.34 						"/>
						<g>
							<polygon class="st0" points="286.47,112.56 286.47,112.56 259.84,118.69 272.42,173.97 							"/>
							<path class="st4" d="M286.42,177.19c4.82-21.07,4.88-43.31,0.05-64.63l-14.05,61.41L286.42,177.19L286.42,177.19z"/>
						</g>
						<path class="st2" d="M145.03,235.2v54.61c21.06,0,42.62-4.54,62.85-14.29l-6.2-12.98L145.03,235.2z"/>
						<g>
							<polygon class="st3" points="145.03,235.2 145.03,235.2 145.03,235.2 145.03,262.51 201.67,262.54 							"/>
						</g>
						<polygon class="st4" points="145.03,262.51 145.03,289.81 201.67,262.54 						"/>
						<path class="st2" d="M286.47,112.56c-4.67-20.63-13.94-40.5-28-58.15c0,0-11.23,8.94-11.23,8.94L286.47,112.56z"/>
						<path class="st2" d="M258.35,235.28c13.19-16.46,23.03-36.14,28.07-58.09c0,0-14-3.22-14-3.22l-56.78,27.31l-13.97,61.27
							l6.2,12.98C227.44,266.11,244.65,252.38,258.35,235.28z"/>
						<g>
							<polygon class="st3" points="215.64,201.27 215.64,201.27 215.64,201.27 236.98,218.31 272.42,173.97 							"/>
							<polygon class="st2" points="215.64,201.27 215.64,201.27 201.67,262.54 236.98,218.31 							"/>
						</g>
						<polygon class="st4" points="236.98,218.31 258.35,235.28 272.42,173.97 						"/>
						<g>
							<polygon class="st0" points="258.35,235.28 258.35,235.28 236.98,218.31 201.67,262.54 							"/>
							<path class="st4" d="M207.88,275.52c19.57-9.4,36.77-23.14,50.47-40.24l-56.68,27.26L207.88,275.52L207.88,275.52z"/>
						</g>
						<path class="st2" d="M258.35,235.28c13.19-16.46,23.03-36.14,28.07-58.09c0,0-14-3.22-14-3.22L258.35,235.28z"/>
						<path class="st2" d="M82.05,14.1c19.05-9.2,40.41-14.35,62.98-14.35c0,0,0,0,0,0v14.36l-39.3,49.23H42.82l-11.23-8.94l0,0
							C45.1,37.47,62.35,23.61,82.05,14.1z"/>
						<g>
							<polygon class="st2" points="105.73,63.34 105.73,63.34 105.73,63.34 93.9,38.73 145.03,14.11 							"/>
							<polygon class="st3" points="105.73,63.34 105.73,63.34 42.82,63.34 93.9,38.73 							"/>
						</g>
						<g>
							<polygon class="st0" points="93.9,38.73 82.05,14.1 145.03,14.11 							"/>
							<path class="st4" d="M82.05,14.1c19.05-9.2,40.41-14.35,62.98-14.35c0,0,0,0,0,0v14.36L82.05,14.1z"/>
						</g>
						<g>
							<polygon class="st4" points="82.05,14.1 82.05,14.1 93.9,38.73 42.82,63.34 							"/>
							<path class="st2" d="M31.59,54.41C45.1,37.47,62.35,23.61,82.05,14.1L42.82,63.34L31.59,54.41L31.59,54.41z"/>
						</g>
						<path class="st2" d="M3.59,112.56c4.67-20.63,13.94-40.5,28-58.15c0,0,11.23,8.94,11.23,8.94l14.02,61.42l-39.2,49.21
							l-14,3.22C-1.17,156.12-1.24,133.88,3.59,112.56z"/>
						<g>
							<polygon class="st2" points="56.85,124.76 56.85,124.76 56.85,124.76 30.22,118.69 42.82,63.34 							"/>
							<polygon class="st3" points="56.85,124.76 56.85,124.76 17.64,173.97 30.22,118.69 							"/>
						</g>
						<polygon class="st0" points="30.22,118.69 3.59,112.56 42.82,63.34 						"/>
						<g>
							<polygon class="st4" points="3.59,112.56 3.59,112.56 30.22,118.69 17.64,173.97 							"/>
							<path class="st2" d="M3.64,177.19c-4.82-21.07-4.88-43.31-0.05-64.63l14.05,61.41L3.64,177.19L3.64,177.19z"/>
						</g>
						<path class="st4" d="M145.03,235.2v54.61c-21.06,0-42.62-4.54-62.85-14.29l6.2-12.98L145.03,235.2z"/>
						<g>
							<polygon class="st2" points="145.03,235.2 145.03,235.2 145.03,235.2 145.03,262.51 88.39,262.54 							"/>
						</g>
						<polygon class="st0" points="145.03,262.51 145.03,289.81 88.39,262.54 						"/>
						<path class="st4" d="M3.59,112.56c4.67-20.63,13.94-40.5,28-58.15c0,0,11.23,8.94,11.23,8.94L3.59,112.56z"/>
						<path class="st2" d="M31.71,235.28c-13.19-16.46-23.03-36.14-28.07-58.09c0,0,14-3.22,14-3.22l56.78,27.31l13.97,61.27
							l-6.2,12.98C62.62,266.11,45.41,252.38,31.71,235.28z"/>
						<g>
							<polygon class="st2" points="74.42,201.27 74.42,201.27 74.42,201.27 53.08,218.31 17.64,173.97 							"/>
							<polygon class="st3" points="74.42,201.27 74.42,201.27 88.39,262.54 53.08,218.31 							"/>
						</g>
						<polygon class="st0" points="53.08,218.31 31.71,235.28 17.64,173.97 						"/>
						<g>
							<polygon class="st4" points="31.71,235.28 31.71,235.28 53.08,218.31 88.39,262.54 							"/>
							<path class="st2" d="M82.19,275.52c-19.57-9.4-36.77-23.14-50.47-40.24l56.68,27.26L82.19,275.52L82.19,275.52z"/>
						</g>
						<path class="st4" d="M31.71,235.28c-13.19-16.46-23.03-36.14-28.07-58.09c0,0,14-3.22,14-3.22L31.71,235.28z"/>
					</g>
				</g>
			</g>
		</g>
		<g>
			<g>
				<g>
					<g>
						<g>
							<g>
								<g>
									<path class="st1" d="M95.38,137.61c1.29-0.55,1.27-2.36,0.98-2.97c-0.1-0.21-0.22-0.38-0.36-0.44
										c-0.02-0.01-0.1-0.04-0.22-0.01c0,0-7.55,3.14-8.95,3.73l3.82,1.63L95.38,137.61z"/>
									<path class="st1" d="M120.13,131.14l0.71,2.25c6.92,0.7,15.93,1.12,24.19,1.12c8.26,0,17.25-0.42,24.19-1.12l0.71-2.25
										c-6.91,0.75-15.71,1.16-24.9,1.16C135.84,132.3,127.01,131.89,120.13,131.14z"/>
									<path class="st1" d="M170.78,123.92c0.35,0,0.67,0.11,0.94,0.3l0.7-2.21c-7.57,0.71-17.27,1.1-27.39,1.1
										c-10.12,0-19.84-0.39-27.38-1.1l0.7,2.21c0.26-0.19,0.58-0.3,0.93-0.3c0.89,0,1.61,0.72,1.61,1.61
										c0,0.89-0.72,1.61-1.61,1.61l-0.02,0l0.38,1.16c8.62,1,18.84,1.22,25.39,1.22c6.55,0,16.75-0.22,25.4-1.22l0.37-1.16
										l-0.02,0c-0.89,0-1.61-0.72-1.61-1.61C169.17,124.64,169.89,123.92,170.78,123.92z M127.6,127.87l-4.53-2.14l4.54-1.73
										l4.55,2.14L127.6,127.87z M136.23,128.15c-1.06,0-1.91-0.86-1.91-1.91c0-1.05,0.86-1.91,1.91-1.91
										c1.06,0,1.91,0.86,1.91,1.91C138.14,127.29,137.29,128.15,136.23,128.15z M145.03,128.35l-4.88-2.03l4.88-2.04l4.88,2.04
										L145.03,128.35z M153.82,128.15c-1.05,0-1.9-0.86-1.9-1.91c0-1.05,0.86-1.91,1.9-1.91c1.06,0,1.93,0.86,1.93,1.91
										C155.75,127.29,154.89,128.15,153.82,128.15z M162.43,127.87l-4.54-1.73l4.53-2.14l4.55,1.73L162.43,127.87z"/>
									<polygon class="st1" points="145.03,73.51 146.9,73.51 147.69,72.66 145.03,65.93 142.37,72.66 143.15,73.51 									"/>
									<path class="st1" d="M104.13,100.88c-0.07,0.41-0.4,0.68-0.79,0.72c0.03,0.38,0.07,0.77,0.14,1.15
										c0.12-0.02,0.23-0.03,0.35-0.02c0.54,0.07,0.92,0.57,0.84,1.11c-0.05,0.39-0.33,0.7-0.68,0.81
										c0.13,0.37,0.27,0.72,0.44,1.09c0.19-0.1,0.4-0.14,0.63-0.11c0.59,0.08,1.03,0.56,0.98,1.16
										c-0.02,0.34-0.23,0.65-0.49,0.83c0.25,0.35,0.52,0.69,0.82,1.02c0.23-0.25,0.61-0.42,0.98-0.39
										c0.67,0.06,1.18,0.65,1.11,1.32c-0.02,0.27-0.14,0.52-0.31,0.71c0.64,0.55,1.31,0.93,1.98,1.26
										c0.8-1.94,2.52-4.91,4.6-6.52c-1.97-1.22-3.31-2.98-3.31-5.48c0-3.38,2.14-6.49,6.85-7.55c0.06-2.62,0.8-4.88,1.02-5.4
										c-8.51-0.35-14.51,5.05-15.57,10.38c0.47,0.11,0.76,0.56,0.68,1.03c-0.1,0.47-0.53,0.78-1.01,0.71
										c-0.06,0.38-0.08,0.75-0.1,1.12c0.03,0,0.07,0.01,0.11,0.01C103.91,99.93,104.22,100.39,104.13,100.88z M117.68,88.96
										c-0.07,0.5-0.28,1.69-0.31,2.17c-5.08,1.5-6.99,5-6.99,8.4c0,2.37,0.87,4.13,2.68,5.6c-0.72,0.59-1.7,1.91-2.05,2.49
										c-2.59-1.66-3.82-4.6-3.82-7.75C107.18,94.06,111.76,89.81,117.68,88.96z"/>
									<path class="st1" d="M145.03,82.86c1.48-2.48,3.75-4.25,6.16-5.27l-1.32-0.42c-1.91,0.63-4.08,1.95-4.83,2.98
										c-0.75-1.03-2.91-2.35-4.83-2.98l-1.32,0.42C141.29,78.61,143.55,80.38,145.03,82.86z"/>
									<path class="st1" d="M157.1,79.84c-2.37,1.08-6.62,4.83-6.54,12.78c0.03,2.28,0.46,4.59,1.02,6.42
										c-0.92,0.36-2.47,1.25-3.11,1.58c-0.52-1.39-1.12-4.28-1.12-7.55c0-6.84,2.56-11.74,7.13-13.88l-1.24-0.42
										c-3.74,1.16-6.94,5.33-8.2,8.42c-1.26-3.09-4.45-7.26-8.2-8.42l-1.24,0.42c4.57,2.14,7.13,7.04,7.13,13.88
										c0,3.27-0.6,6.17-1.12,7.55c-0.65-0.34-2.19-1.22-3.11-1.58c0.56-1.83,0.99-4.14,1.02-6.42c0.09-7.95-4.17-11.7-6.54-12.78
										c-6.07-0.26-12.66,4-12.68,12.66c-0.01,2.07,0.42,4,0.9,5.54c0.55,1.74,1.29,4.07,1.09,6.4c1.69,0.55,3.28,1.19,4.69,1.87
										c1.3-2.63,3.74-5.18,5.72-6.63c-2.49-2.11-3.55-5.16-3.55-7.36c0-4.96,2.33-7.83,6.68-8.8c1.47,1.93,2.63,4.3,2.59,9.06
										c-0.03,2.55-0.47,4.67-1.28,7.06c3.43,1.42,6.53,3.56,7.91,5.32c1.39-1.76,4.48-3.91,7.91-5.32
										c-0.82-2.39-1.25-4.52-1.28-7.06c-0.05-4.76,1.12-7.13,2.59-9.06c4.35,0.97,6.68,3.85,6.68,8.8c0,2.2-1.05,5.25-3.55,7.36
										c1.98,1.46,4.41,4,5.72,6.63c1.41-0.69,3.01-1.33,4.69-1.87c-0.21-2.33,0.53-4.66,1.08-6.4c0.49-1.54,0.91-3.48,0.9-5.54
										C169.77,83.84,163.17,79.59,157.1,79.84z M123.18,87.4c0.51,0,0.92,0.42,0.92,0.93c0,0.51-0.41,0.92-0.92,0.92
										c-0.51,0-0.92-0.42-0.92-0.92C122.26,87.81,122.67,87.4,123.18,87.4z M122.68,90.63c0.57,0,1.03,0.46,1.03,1.03
										c0,0.56-0.46,1.02-1.03,1.02c-0.56,0-1.02-0.46-1.02-1.02C121.65,91.08,122.12,90.63,122.68,90.63z M121.69,95.2
										c0-0.63,0.5-1.14,1.14-1.14c0.62,0,1.14,0.51,1.14,1.14c0,0.64-0.51,1.14-1.14,1.14C122.19,96.34,121.69,95.84,121.69,95.2
										z M122.63,98.95c0-0.7,0.57-1.27,1.25-1.27c0.7,0,1.26,0.56,1.26,1.27c0,0.7-0.56,1.26-1.26,1.26
										C123.2,100.21,122.63,99.64,122.63,98.95z M125.32,104.01c-0.78,0-1.41-0.63-1.41-1.4c0-0.78,0.62-1.41,1.41-1.41
										c0.78,0,1.4,0.63,1.4,1.41C126.71,103.38,126.09,104.01,125.32,104.01z M128.07,92.27c0,2.67,1.09,5.23,2.97,7.35
										c-0.63,0.49-2.01,1.82-2.49,2.42c-2.1-2.15-3.65-5.77-3.65-9.52c0-5.26,2.33-10.12,8.55-11.3
										c0.36,0.22,1.36,0.94,1.72,1.44C130.12,84,128.07,87.44,128.07,92.27z M145.03,88.58c0.54,0,0.97,0.44,0.97,0.98
										c0,0.53-0.43,0.97-0.97,0.97c-0.54,0-0.98-0.44-0.98-0.97C144.05,89.02,144.49,88.58,145.03,88.58z M145.03,91.88
										c0.62,0,1.11,0.5,1.11,1.11c0,0.62-0.5,1.12-1.11,1.12c-0.62,0-1.12-0.5-1.12-1.12C143.91,92.38,144.41,91.88,145.03,91.88
										z M145.03,95.25c0.7,0,1.26,0.57,1.26,1.27c0,0.7-0.57,1.26-1.26,1.26c-0.7,0-1.26-0.56-1.26-1.26
										C143.77,95.82,144.33,95.25,145.03,95.25z M145.03,101.79c-0.78,0-1.4-0.63-1.4-1.4c0-0.78,0.62-1.41,1.4-1.41
										c0.77,0,1.4,0.63,1.4,1.41C146.43,101.16,145.8,101.79,145.03,101.79z M166.88,87.4c0.51,0,0.92,0.42,0.92,0.93
										c0,0.51-0.41,0.92-0.92,0.92c-0.51,0-0.92-0.42-0.92-0.92C165.96,87.81,166.37,87.4,166.88,87.4z M161.51,102.04
										c-0.48-0.61-1.85-1.94-2.49-2.42c1.88-2.12,2.97-4.68,2.97-7.35c0-4.83-2.05-8.27-7.1-9.61c0.37-0.5,1.37-1.21,1.73-1.44
										c6.22,1.18,8.54,6.04,8.54,11.3C165.16,96.27,163.61,99.89,161.51,102.04z M166.18,100.21c-0.7,0-1.26-0.56-1.26-1.26
										c0-0.7,0.57-1.27,1.26-1.27c0.7,0,1.25,0.56,1.25,1.27C167.43,99.64,166.87,100.21,166.18,100.21z M167.23,96.34
										c-0.62,0-1.13-0.5-1.13-1.14c0-0.63,0.5-1.14,1.13-1.14c0.64,0,1.14,0.51,1.14,1.14
										C168.37,95.84,167.87,96.34,167.23,96.34z M167.38,92.67c-0.57,0-1.03-0.46-1.03-1.02c0-0.57,0.46-1.03,1.03-1.03
										c0.57,0,1.02,0.46,1.02,1.03C168.41,92.22,167.95,92.67,167.38,92.67z"/>
									<path class="st1" d="M178.63,99.54c0,2.5-1.35,4.26-3.31,5.48c2.09,1.61,3.81,4.58,4.6,6.52c0.68-0.34,1.35-0.71,1.98-1.26
										c-0.17-0.19-0.29-0.44-0.31-0.71c-0.06-0.67,0.45-1.26,1.12-1.32c0.37-0.03,0.74,0.14,0.98,0.39
										c0.3-0.33,0.58-0.67,0.82-1.02c-0.26-0.18-0.46-0.49-0.5-0.83c-0.04-0.6,0.4-1.08,0.99-1.16c0.23-0.03,0.44,0.01,0.63,0.11
										c0.17-0.36,0.3-0.72,0.43-1.09c-0.34-0.11-0.62-0.42-0.67-0.81c-0.08-0.54,0.3-1.04,0.84-1.11c0.12-0.01,0.23,0,0.35,0.02
										c0.07-0.38,0.1-0.77,0.14-1.15c-0.39-0.05-0.71-0.32-0.78-0.72c-0.1-0.49,0.22-0.95,0.7-1.04c0.05,0,0.08-0.01,0.12-0.01
										c-0.02-0.37-0.06-0.74-0.1-1.12c-0.48,0.07-0.92-0.24-1.02-0.71c-0.08-0.48,0.22-0.92,0.68-1.03
										c-1.06-5.32-7.05-10.73-15.57-10.38c0.23,0.53,0.97,2.78,1.03,5.4C176.49,93.05,178.63,96.16,178.63,99.54z M182.88,99.88
										c0,3.15-1.23,6.09-3.82,7.75c-0.35-0.58-1.33-1.89-2.05-2.49c1.81-1.47,2.68-3.23,2.68-5.6c0-3.4-1.92-6.9-7-8.4
										c-0.02-0.48-0.23-1.67-0.31-2.17C178.3,89.81,182.88,94.06,182.88,99.88z"/>
									<path class="st1" d="M147.96,76.18c0-0.72-1.38-1.42-2.93-1.42c-1.53,0-2.92,0.7-2.92,1.42c1.03,0.34,2.05,0.87,2.92,1.53
										C145.9,77.05,146.92,76.52,147.96,76.18z"/>
									<path class="st1" d="M120.4,115.81c-0.96,0.83-3.26,1.28-4.79,0.93c0.01-0.24,0.09-0.46,0.26-0.7
										c0.3-0.45,0.29-0.46,0.91-0.84c0.65-0.4,0.76-1.32,0.04-1.4c0.45-0.44,0.57-1,0.31-1.33c-0.26-0.32-0.7-0.26-1.16,0.14
										c0.04-0.62-0.49-0.85-0.9-0.48c-0.22,0.19-0.36,0.43-0.51,0.82c-0.17,0.44-0.6,0.39-0.74-0.1
										c-0.14-0.45-0.23-0.68-0.5-0.92c-0.53-0.47-1.32-0.13-1.24,0.7c-0.38-0.58-0.92-0.74-1.21-0.52
										c-0.32,0.25-0.31,0.72,0.03,1.34c0.48,0.86,1.49,1.96,2.37,2.75c0.96,0.87,2.13,1.72,3.14,2.91
										c6.44,0.76,17.42,1.23,28.63,1.23c11.2,0,22.16-0.47,28.63-1.23c1.01-1.18,2.18-2.04,3.15-2.91
										c0.87-0.79,1.87-1.88,2.35-2.75c0.36-0.62,0.36-1.09,0.04-1.34c-0.28-0.22-0.82-0.06-1.22,0.52c0.1-0.83-0.7-1.17-1.23-0.7
										c-0.27,0.25-0.41,0.48-0.54,0.92c-0.16,0.49-0.58,0.46-0.79-0.01c-0.18-0.41-0.35-0.67-0.61-0.87
										c-0.5-0.4-1.14-0.14-1.1,0.51c-0.54-0.42-1.08-0.48-1.38-0.14c-0.31,0.34-0.18,0.94,0.38,1.41
										c-0.86,0.09-0.74,1.06,0.04,1.48c0.76,0.4,1.14,0.36,1.45,0.81c0.17,0.24,0.25,0.46,0.26,0.7
										c-1.54,0.16-3.68-0.24-4.75-0.94c0.42-0.16,0.75-0.58,0.81-1.1c0.07-0.71-0.4-1.34-1.06-1.42
										c-0.66-0.07-1.26,0.45-1.34,1.16c-0.06,0.56,0.22,1.08,0.69,1.3l-0.05,0.03c-1.76,1.37-5.67,1.46-7.12-0.33l-0.17-0.2
										c0.41-0.43,0.96-0.7,1.33-0.68c0.86,0.05,0.73,0.31,1.62,0.42c0.73,0.09,1.33-0.55,0.86-1.14c0.76-0.02,1.3-0.41,1.32-0.88
										c0.02-0.47-0.42-0.77-1.14-0.79c0.5-0.5,0.22-1.13-0.45-1.11c-0.3,0-0.64,0.08-1.09,0.29c-0.34,0.16-0.55-0.11-0.35-0.38
										c0.31-0.41,0.45-0.55,0.55-0.92c0.18-0.67-0.33-1.18-0.98-0.85c0.06-0.38,0.15-1.1-0.5-1.24c-0.69-0.15-1.07,0.65-1.18,1.1
										c-0.51-0.43-1.17-0.05-1.24,0.62c-0.04,0.38,0,0.58,0.14,1.02c0.1,0.3-0.21,0.52-0.47,0.32c-0.36-0.28-0.7-0.43-0.99-0.48
										c-0.67-0.12-1.19,0.43-0.87,1c-0.73-0.1-1.3,0.1-1.46,0.57c-0.16,0.46,0.25,0.93,0.99,1.08c-0.7,0.48-0.34,1.2,0.43,1.24
										c0.94,0.05,0.91-0.22,1.76-0.12c0.36,0.04,0.78,0.37,1.03,0.85l-0.23,0.19c-1.86,1.6-5.17,1.49-6.8-0.22l-0.02-0.03
										c0.5-0.18,0.85-0.66,0.85-1.22c0-0.72-0.57-1.3-1.29-1.3c-0.71,0-1.3,0.58-1.3,1.3c0,0.52,0.32,0.97,0.74,1.17l-0.01,0.02
										c-1.89,1.61-5.22,1.57-7.14-0.08l-0.18-0.15c0.38-0.51,0.6-0.91,0.92-0.92c0.74-0.02,0.68,0.25,1.48,0.29
										c0.67,0.03,1.1-0.7,0.58-1.29c0.67-0.09,1.09-0.56,1.03-1.06c-0.06-0.51-0.51-0.79-1.15-0.74
										c0.38-0.58,0.02-1.22-0.58-1.16c-0.26,0.03-0.58,0.16-0.94,0.42c-0.26,0.2-0.48-0.07-0.35-0.38
										c0.19-0.47,0.36-0.66,0.39-1.08c0.06-0.73-0.47-1.19-1.01-0.78c0-0.62-0.12-1.27-0.78-1.27c-0.65,0-0.78,0.66-0.78,1.27
										c-0.53-0.41-1.06,0.05-1.02,0.78c0.03,0.42,0.2,0.61,0.39,1.08c0.13,0.31-0.1,0.58-0.35,0.38
										c-0.35-0.26-0.66-0.4-0.93-0.42c-0.59-0.07-0.96,0.58-0.59,1.16c-0.63-0.05-1.09,0.23-1.14,0.74
										c-0.06,0.51,0.36,0.98,1.03,1.06c-0.52,0.59-0.09,1.32,0.58,1.29c0.8-0.04,0.74-0.32,1.48-0.29
										c0.32,0.01,0.58,0.41,0.97,0.92l-0.18,0.15c-1.92,1.65-5.81,1.3-7.25,0.08l-0.01-0.01c0.33-0.16,0.56-0.5,0.56-0.9
										c0-0.54-0.43-0.98-0.98-0.98c-0.54,0-0.98,0.44-0.98,0.98c0,0.42,0.27,0.79,0.65,0.93l-0.02,0.02
										c-1.23,1.3-5,1.83-6.93,0.23l-0.28-0.27c0.25-0.46,0.55-0.79,0.86-0.82c0.75-0.1,0.73,0.16,1.54,0.11
										c0.67-0.04,0.98-0.73,0.38-1.2c0.66-0.15,1.26-0.6,1.11-1.05c-0.14-0.45-0.88-0.65-1.51-0.55
										c0.28-0.56-0.18-1.09-0.76-0.98c-0.26,0.05-0.55,0.19-0.87,0.46c-0.23,0.2-0.5-0.02-0.42-0.31
										c0.12-0.43,0.16-0.62,0.12-0.98c-0.06-0.66-0.63-1.02-1.09-0.6c-0.09-0.44-0.42-1.22-1.02-1.07
										c-0.58,0.15-0.5,0.84-0.45,1.21c-0.58-0.32-1.02,0.18-0.86,0.83c0.1,0.36,0.21,0.5,0.47,0.9c0.18,0.27,0,0.52-0.3,0.37
										c-0.4-0.2-0.69-0.28-0.95-0.28c-0.59-0.01-0.84,0.6-0.39,1.08c-0.62,0.02-1.02,0.31-1,0.77c0.02,0.46,0.5,0.84,1.15,0.86
										c-0.4,0.57,0.12,1.19,0.75,1.1c0.78-0.11,0.67-0.36,1.42-0.41c0.33-0.02,0.72,0.3,1.15,0.73l-0.18,0.2
										c-1.63,1.78-5.56,1.56-7.1,0.34l-0.1-0.02c0.34-0.18,0.55-0.56,0.5-0.99c-0.06-0.54-0.51-0.94-1.02-0.88
										c-0.5,0.05-0.86,0.54-0.8,1.08C119.89,115.37,120.02,115.66,120.4,115.81z M114.65,116.12c-0.26,0.14-0.83-0.26-1.23-0.65
										c-0.4-0.39-0.64-0.78-0.37-1.03c0.26-0.23,0.98-0.31,1.53,0.26C114.99,115.11,115,115.93,114.65,116.12z M175.47,114.69
										c0.57-0.57,1.28-0.49,1.53-0.26c0.27,0.26,0.03,0.64-0.37,1.03c-0.41,0.39-0.97,0.79-1.22,0.65
										C175.06,115.93,175.07,115.11,175.47,114.69z M160.36,112.51c0.07-0.71,0.7-1.22,1.42-1.16c0.71,0.07,1.23,0.7,1.16,1.39
										c-0.06,0.7-0.7,1.23-1.41,1.16C160.81,113.84,160.29,113.21,160.36,112.51z M143.7,111.97c0-0.73,0.59-1.33,1.33-1.33
										c0.72,0,1.32,0.6,1.32,1.33c0,0.74-0.6,1.33-1.32,1.33C144.29,113.3,143.7,112.7,143.7,111.97z M128.51,113.9
										c-0.71,0.07-1.34-0.46-1.41-1.16c-0.07-0.7,0.45-1.32,1.15-1.39c0.73-0.06,1.36,0.45,1.43,1.16
										C129.77,113.21,129.24,113.84,128.51,113.9z"/>
									<path class="st1" d="M202.9,178.89c-2.53-1.13-7.95-3.42-12.48-5.21l-5.43,2.42c-2.12-1.22-5.4-2.66-8.22-3.88
										c-3.25-1.4-13.26-5.53-13.26-5.53l-4.12,2.1c0,0,12.82,5.39,15.47,6.5c2.65,1.11,0,0,0,0c2.5,1.11,4.11,1.89,5.35,2.6
										l-11.02,4.77c6.17,2.73,15.86,6.51,18.69,7.56c6.51,2.4,12.83,1.79,20.28-0.61C208.37,181.63,205.76,180.15,202.9,178.89z
										 M197.18,190.87c2.05-0.58,3.49-1.44,4.39-2.47c-2.18,1.41-4.41,2.1-6.19,2.18c-1.8,0.08-2.45-0.01-3.67-0.33
										c2.29-0.64,5.82-2.49,6.19-3.05c-3.12,1.41-5.56,2.44-7.18,2.4c-0.77-0.02-2.08,0.06-3.99-0.74
										c0.28,0.02,0.66-0.03,1.14-0.15c2.27-0.59,6.11-2.49,6.48-3.06c-3.15,1.43-5.54,2.18-7.04,2.44
										c-1.18,0.21-2.09,0.06-3.24-0.32c-1.11-0.41-0.13-0.03-1.2-0.48c0.28,0.02,0.65-0.03,1.1-0.15
										c2.28-0.59,6.03-2.45,6.41-3.02c-3.16,1.43-5.45,2.13-6.97,2.4c-1.06,0.18-2.95-0.09-4.57-0.78
										c0.29,0.03,0.69-0.01,1.18-0.14c2.27-0.59,6.11-2.49,6.49-3.06c-3.16,1.43-5.54,2.18-7.05,2.44
										c-1.1,0.19-2.96,0.03-4.5-0.83c0.29,0.03,0.69-0.01,1.18-0.14c2.28-0.59,6.11-2.49,6.49-3.07
										c-3.16,1.43-5.54,2.18-7.05,2.44c-1.07,0.19-3.07-0.04-4.14-0.68l0,0c-0.01,0-0.01,0-0.02,0l9.72-4.21
										c0,0,1.77,0.83,3.42,2.26c-0.42-1.43-1.79-2.54-3.28-3.37c-1.5-0.83-2.69-1.39-5.2-2.51c-0.76-0.36,0.12-2,1.02-1.54
										c3.38,1.44,5.49,2.46,7,3.51c1.79,1.25,2.17,2.48,3.16,4.68c3.24,1.2,10.73,3.75,14.38,5.53
										c-2.27-3.03-9.18-4.87-12.79-6.49c-1.34-2.52-1.7-3.07-2.91-3.87l4.49-2c3.92,1.56,8.21,3.3,11.65,4.83
										c3.35,1.48,5.2,2.74,5.2,9.47C204.09,189.94,200.47,190.71,197.18,190.87z"/>
								</g>
							</g>
							<g>
								<path class="st1" d="M84.05,142.83c2.04,0.91,9.62,4.25,12.28,5.29c2.93,1.16,7.28,1.1,11.9-0.23
									c0.34-0.1,0.68-0.18,1.02-0.29l20.82,8.76l3.68-2.24l-22.18-9.33c-0.01-0.17-0.03-0.35-0.09-0.57
									c-0.47-1.98-0.63-4.58-5.73-6.78l-7.67-3.35c0.6,0.38,0.91,2.21,0,3.36c1.77,0.75,4.25,1.98,6.36,2.84
									c2.85,1.15,3.13,2.3,3.54,4.03c-6.23,1.79-8.62,0.85-10.65,0.2c-1.26-0.4-11.83-4.97-12.31-5.14
									c-0.58-0.21-1.16-0.13-1.59,0.08c-0.26,0.12-0.46,0.31-0.61,0.56c-0.02,0.02-0.02,0.04-0.03,0.06
									c-0.02,0.04-0.04,0.09-0.06,0.13C82.34,141.09,82.47,142.29,84.05,142.83z"/>
								<path class="st1" d="M207.9,135.94c-0.41-0.69-1.45-0.89-2.57-0.8c-0.91,0.06-1.39,0.08-4.4,0.6h-0.01
									c-4.82,0.26-13.89,1.03-24.98,3.35c-7.95,1.66-32.3,7.78-53.2,23.72c-0.06,0.03-0.11,0.07-0.14,0.12
									c-3.77,2.88-7.42,6.08-10.84,9.64C94.98,183,82.42,190.36,82.42,190.36l0.87,1.18c7.83-5.27,11.21-3.79,11.21-3.79
									c5.4-5.15,10.3-8.36,13.81-10.27c2.71-1.47,3.69-1.65,7.32-1.78c6.86-0.26,18.6,0.52,22.15,0.28
									c2.76-0.18,3.47-0.25,5.68-1.08c3.97-1.51,14.53-6.8,22.64-10.87c-1.7,0.1-3.68-0.16-6.01-1.59
									c-3.96-2.42-6.2-3.91-9.05-4.15c3.57-0.13,6.3,0.87,9.09,2.07c1.51,0.65,3.06,1.56,5.33,1.96c2.45,0.44,3.98-0.05,7.08-1.65
									c8.11-4.23,13.14-7.04,19.25-10.69l1.06-0.64l-1.22-0.17c-0.5-0.07-1.97-0.49-2.44-0.73c-1.14-0.56-1.89-1.04-2.57-1.46
									c-1.76-1.11-4.29-2.15-7.64-2.03c1.58-0.38,3.47-0.99,6.44-0.3c2.81,0.65,4.72,2.27,6.68,2.91c1.53,0.5,3.14,0.37,4.5-0.49
									c4.54-2.88,6.96-4.63,8.75-6.21C208.14,138.4,208.44,136.86,207.9,135.94z M127.48,160.58c-0.04,0.3-0.1,0.61-0.22,0.92
									c0.27-0.23,0.47-0.52,0.64-0.84c0.13-0.24,0.68-0.86,1.15-1.17c0.91-0.61,1.85-1.18,2.79-1.77c-0.09,0.5-0.1,1.08-0.32,1.57
									c0.43-0.38,0.69-0.87,0.92-1.36c0.28-0.59,0.66-1.01,1.54-1.54c0.79-0.47,1.6-0.98,2.41-1.44c-0.17,0.6-0.08,1.4-0.42,2.02
									c0.44-0.43,0.75-1.03,1.04-1.63c0.3-0.62,0.62-1.08,1.58-1.6c0.92-0.5,1.75-0.96,2.68-1.44c-0.25,0.62-0.11,1.45-0.47,2.12
									c0.44-0.42,0.76-1.02,1.07-1.61c0.33-0.64,0.9-1.29,1.89-1.77c0.62-0.3,1.85-0.84,2.47-1.13c-0.17,0.57-0.01,1.34-0.35,1.97
									c0.46-0.43,0.7-1,0.97-1.55c0.27-0.55,0.7-1.01,1.93-1.56c0.98-0.44,1.6-0.68,2.59-1.09c-0.11,0.59-0.05,1.36-0.34,1.89
									c0.41-0.39,0.65-0.91,0.9-1.43c0.24-0.49,0.87-1.04,1.97-1.47c0.91-0.36,1.82-0.75,2.73-1.09c-0.12,0.53,0,1.27-0.32,1.81
									c0.37-0.3,0.62-0.74,0.86-1.2c0.41-0.78,1.05-1.16,2.09-1.51c0.76-0.27,1.51-0.59,2.27-0.84c-0.17,0.52-0.16,1.23-0.49,1.77
									c0.45-0.34,0.8-0.84,1.14-1.35c0.3-0.44,0.78-0.82,1.95-1.19c0.83-0.26,1.66-0.51,2.49-0.75c-0.26,0.52-0.28,1.23-0.7,1.77
									c0.47-0.31,0.85-0.81,1.21-1.31c0.3-0.41,0.85-0.84,1.78-1.1c0.94-0.26,1.87-0.5,2.81-0.74c-0.12,0.31-0.25,0.65-0.48,0.98
									c0.31-0.16,0.56-0.39,0.79-0.65c0.33-0.37,0.52-0.53,1.46-0.75c5.9-1.4,11.8-2.42,17.56-2.97
									c-25.71,5.62-54.92,20.32-76.8,33.7C118.27,167.39,122.72,163.84,127.48,160.58z M206.5,138.09
									c-2.26,1.81-6.93,1.62-9.14,0.99c2.8,1.29,6.03,1.41,8.63,0.12c-1.24,1.39-2.99,2.5-3.86,2.84c-0.96,0.38-2,0.38-2.81,0.26
									c-0.84-0.12-2.01-0.56-2.8-0.88c-1.94-0.79-3.3-1.04-4.51-1.02c2.27,0.28,3.55,1.08,4.87,1.77c1.12,0.58,2.7,1.1,4.07,0.96
									c-1,1.03-2.95,1.9-4.19,1.68c-1.03-0.18-1.89-0.55-2.99-1.19c-2.65-1.55-4.3-1.82-6.34-1.73c2.16,0.15,3.46,0.7,5.52,2.03
									c1.58,1.03,3.1,1.78,4.5,1.64c-1.39,1.11-2.73,1.67-4.17,1.41c-2.62-0.48-4.7-2.31-7.6-2.87c-2.69-0.52-5.08-0.13-7.87,1.06
									c3.07,0.04,5.37,0.59,7.58,1.91c2.01,1.2,4,2.42,5.3,2.67c-1.62,0.95-3.32,0.71-3.93,0.63c-2.21-0.27-3.93-1.7-6.86-2.72
									c-2.58-0.89-4.34-0.75-6.14-0.54c3.09-0.03,5.38,0.56,7.57,1.83c1.8,1.06,4.34,2.48,6.76,2.29
									c-1.36,0.93-3.42,1.69-5.04,1.49c-2.73-0.34-5.03-2.03-7.91-2.94c-2.75-0.86-4.96-0.68-6.03-0.47
									c3.16,0,4.98,0.49,7.15,1.62c3.01,1.57,5.54,2.84,7.78,2.56c-2.01,1.15-3.28,1.75-5.18,1.53c-2.99-0.33-4.92-2.31-8.69-3.37
									c-2.45-0.69-4.69-0.59-5.6-0.45c3.22,0.17,5.28,0.55,8.47,2.31c3.56,1.98,5.08,2.59,6.94,2.25c-0.69,0.3,0.1-0.04-1.26,0.65
									c-1.81,1-3.16,1.41-4.55,1.04c-2.9-0.78-4.25-2.72-8.07-3.64c-2.87-0.7-4.57-0.64-6.67-0.35c4.06,0.02,6.81,0.52,10.01,2.56
									c2.16,1.36,3.89,2.32,5.34,2.44c-1.77,1.21-3.76,1.72-5.61,1.09c-1.86-0.64-3.65-2.39-6.96-3.29
									c-2.93-0.8-4.77-0.82-7.28-0.42c3.99-0.16,7.38,0.75,10.33,2.57c2.09,1.3,3.58,2.25,5.18,2.26
									c-2.29,1.24-3.99,1.02-5.07,0.83c-2.17-0.39-3.45-1.22-4.99-1.88c-0.89-0.38-3.63-1.3-5.4-1.53
									c-3.05-0.39-4.31-0.15-6.44,0.09c1.22,0.13,2.55,0.14,4.94,1.12c2.36,0.97,5.16,3.24,6.14,3.73
									c1.49,0.76,2.65,1.3,3.81,1.39c-1.56,1.01-3.89,1.49-5.81,0.87c-2.86-0.94-5.47-4-9.19-4.74c-2.03-0.4-3.38-0.33-4.33-0.25
									c3.4,0.15,5.76,0.72,8.83,3.11c2.65,2.06,5.12,3.06,6.75,2.89c-1.45,0.78-0.07,0.13-1.34,0.7
									c-1.58,0.69-2.63,0.76-4.35,0.35c-2.54-0.6-4.46-2.73-7.52-3.7c-2.33-0.74-4.79-0.9-7.2-0.44c2.89-0.14,6.13-0.03,9.23,2.16
									c2.75,1.95,5,3.03,6.83,2.91c-3.01,1.95-5.23,1.49-6.28,1.09c-1.73-0.64-3.73-2.29-6.48-3.09
									c-2.34-0.69-4.39-0.86-7.27-0.57c4.03,0.08,6.76,0.65,9.73,2.48c2.23,1.37,3.94,2.35,5.62,2.46
									c-1.93,1.21-4.59,1.72-6.64,0.77c-1.88-0.87-3.68-2.3-6.76-3.01c-2.46-0.57-4.46-0.67-6.76-0.3
									c4.72-0.04,7.65,0.91,10.12,2.43c2.13,1.31,3.91,2.37,5.66,2.15c-2.34,1.31-5.29,1.57-7.29,0.67
									c-2.31-1.02-3.71-1.99-6.53-2.64c-2.19-0.51-4.15-0.69-6.57-0.18c4.14-0.22,6.62,0.43,9.8,2.21
									c1.64,0.92,2.85,1.65,5.18,2.01c-1.55,0.3-4.29,0.38-6.3,0.12c-2.45-0.32-3.58-0.61-5.2-1.27
									c-3.03-1.21-5.28-1.09-7.46-0.72c2.55,0,4.16,0.02,6.23,0.97c0.68,0.33,1.81,0.88,2.53,1.12
									c-7.3-0.47-12.69-0.31-17.35-0.19c2.87-2.13,21.15-12.39,30.04-17c38.73-19.76,61.16-21.72,62.25-21.8
									c0.86-0.08,1.38,0.08,1.59,0.54C207.35,136.93,207.08,137.63,206.5,138.09z"/>
							</g>
						</g>
					</g>
				</g>
			</g>
		</g>
	</g>
</g>
<g id="Clearance">
</g>
</svg>
